<?xml version="1.0" encoding="UTF-8"?>
<svg version="1.1" viewBox="0 0 1600 1600" width="100" height="100" xmlns="http://www.w3.org/2000/svg">
<path transform="translate(515,478)" d="m0 0h257l499 1 7 1 1 4-6 56-7 55-5 41-7 65-7 54-6 56-10 80-7 64-9 72-7 64-5 40-4 31-8 74-7 49-4 22-6 16-7 13-8 11-9 10-7 7-10 7-16 7-16 4-16 2-15 1-395 1h-154l-22-2-15-4-16-8-10-7-10-9-9-9-9-13-8-17-5-16-5-30-14-117-19-163-14-119-22-185-11-93-6-52-5-52v-9l2-2h41z" fill="#FA7671"/>
<path transform="translate(789,133)" d="m0 0h18l13 4 12 7 9 9 5 8 5 15 2 15 1 21 47 1h228l26 1 10 2 10 5 8 6 9 13 6 13 5 12v2l21-1h43l17 1 14 3 10 4 9 7 7 8 7 14 2 7v18l-5 13-7 11-10 10-5 4-11 4-8 1-19 1-51 1h-76l-825-1-16-2-10-5-10-9-7-10-6-13-3-11v-7l4-13 7-12 9-10 9-8 11-4 10-2 17-1 43 1h22l3-10 5-12 10-13 4-6 6-5 11-6 4-1h306v-30l7-22 4-6 9-10 9-6 11-5z" fill="#FA7671"/>
</svg>
