<?xml version="1.0" encoding="UTF-8"?>
<svg version="1.1" viewBox="0 0 1600 1600" width="100" height="100" xmlns="http://www.w3.org/2000/svg">
<path transform="translate(738,66)" d="m0 0h115l22 1 19 3 15 5 16 10 10 9 7 7 12 17 7 15 3 10 2 16 1 37v399l-1 110-3 10-6 8-7 5-8 3h-20l-8-4-12-11-3-16-1-461-1-71-2-21-2-7-5-2-6-2-9-1-27-1h-95l-21 1-17 3-8 4-2 4-2 23-1 182v416l-1 72-2 10-5 9-6 5-9 3-13 1-45 1h-82l-32-1h-27l36 36 6 5 28 28 7 8 18 18 7 8 28 28 7 8 29 29 7 8 29 29 7 8 23 23v2h2l7 8 19 19v2h2l7 8 17 17 6 7 6 5 7 8 10 11 6 4 4-1 10-11 7-8 31-31 7-8 4-4h2l2-4 34-34 7-8 24-24 1-2h2l2-4 4-4h2v-2h2v-2h2l2-4 17-17 5-6 7-6 7-8 18-18 15-16 31-31 14-16h2l2-4 39-39 7-8 6-7h-136l-185-1-10-2-10-5-7-8-3-7v-16l3-10 6-9 8-6 12-2 28-1 55-1h298l23 1 13 2 10 5 6 7 3 8v17l-5 10-9 12-2 3h-2l-2 4-11 12-3 4h-2l-2 4-26 26-7 8-15 15-7 8-37 37-7 8-35 35-4 5h-2v2h-2l-2 4-29 29-7 8-17 17-5 6-26 26-5 6h-2v2h-2l-2 4-22 22-1 2h-2l-2 4-32 32-1 2h-2v2h-2v2h-2l-2 4-37 37-11 9-9 6-8 4-12 3-12 1-15-2-13-5-11-7-10-9-8-7-12-12v-2h-2l-7-8-17-17-7-8-15-15-7-8-37-37-7-8-24-24-7-8-25-25v-2h-2l-7-8-32-32-7-8-38-38v-2h-2l-7-8-21-21-7-8-16-16-7-8-11-11-7-8-10-10v-2h-2l-7-8-11-12-10-12-4-8v-11l4-12 7-10 9-6 22-1h214l9-1v-167l1-475 1-9 8-23 6-11 9-12 2-3h2l2-4 13-11 13-8 11-5 16-3z" fill="#FEFEFE"/>
<path transform="translate(158,1199)" d="m0 0h13l10 4 9 7 7 14 3 12v66l2 15 5 20 8 16 8 10 9 10 13 10 16 8 18 5 18 2 32 1h64l904-1 22-2 15-4 14-6 13-9 12-11 10-14 7-13 5-20 2-18 1-69 3-12 5-8 5-5 8-5 8-2h10l10 3 9 6 6 9 3 8 2 13v49l-1 20-3 24-6 21-5 14-12 21-11 16-9 10-10 10-11 9-18 11-16 8-19 6-23 5-19 2-18 1-956 1-36-1-26-3-24-6-19-8-13-7-11-8-11-9-15-15-9-12-10-15-10-19-8-22-4-19-2-18-1-18v-25l1-33 4-12 6-8 7-6z" fill="#FEFEFE"/>
</svg>
