<?xml version="1.0" encoding="UTF-8"?>
<svg version="1.1" viewBox="0 0 1600 1600" width="100" height="100" xmlns="http://www.w3.org/2000/svg">
<path transform="translate(776,540)" d="m0 0h44l26 3 26 6 26 9 19 9 21 12 18 13 22 18 14 14 9 11 12 16 8 13 10 18 8 17 9 24 6 24 5 33 1 23-2 26-5 29-4 15-7 20-9 20-12 22-10 14-9 12-11 13-7 7-6 7-11 9-8 7-14 10-14 9-20 11-26 10-23 7-28 5-15 2-24 1-22-1-29-4-26-7-25-10-16-8-16-9-17-12-13-11-8-7-20-20-9-11-13-18-9-16-8-15-10-25-8-25-5-24-2-16-1-19 2-28 4-25 6-23 8-22 11-24 10-18 13-19 10-12 9-11 11-11 11-9 13-10 12-8 14-9 19-10 25-10 22-6 28-5zm14 103-25 3-14 4-16 6-17 9-11 8-10 9-8 7-10 11-8 10-11 19-6 13-7 25-3 20-1 13 1 16 5 25 7 21 11 20 10 14 9 11h2v2l8 7 10 8 15 10 15 8 16 6 16 4 17 3h26l20-3 15-4 20-8 15-8 13-9 11-9 15-15 7-9 11-18 6-12 6-20 3-15 2-24-1-21-3-17-9-27-7-14-12-18-9-10-7-8-10-9-13-9-18-10-20-8-16-4-12-2-12-1z" fill="#313131"/>
<path transform="translate(797,279)" d="m0 0 14 2 12 5 10 7 8 8 7 14 3 10 2 17v26l-3 23-5 15-9 13-10 9-10 4-11 2h-13l-11-2-11-6-7-6-8-11-5-11-3-13-1-7v-43l4-18 5-12 9-11 10-8 13-5z" fill="#313131"/>
<path transform="translate(788,1165)" d="m0 0h21l13 4 11 7 8 9 8 16 3 16 1 13v19l-2 22-4 13-5 10-9 10-8 7-12 6-4 1h-17l-12-3-12-7-9-9-6-10-5-16-2-13v-41l4-19 7-14 11-12 9-6z" fill="#313131"/>
<path transform="translate(1124,417)" d="m0 0 16 1 13 5 11 7 7 7 7 11 3 8 2 10v7l-4 13-9 14-11 13-9 10-9 9-8 7-12 9-10 6-12 3h-9l-14-3-12-6-11-11-6-10-6-15v-14l5-13 11-16 22-24 8-7 10-9 14-9 6-2z" fill="#313131"/>
<path transform="translate(333,747)" d="m0 0h48l16 3 14 6 10 8 7 9 5 10 2 8v16l-3 10-5 9-9 10-8 7-10 4-14 3-18 2h-25l-19-2-13-4-11-6-9-8-6-10-5-13-1-5v-11l3-10 8-15 7-7 10-7 9-4z" fill="#313131"/>
<path transform="translate(459,417)" d="m0 0h14l12 3 15 8 10 8 13 12 11 11 13 17 7 12 3 10v14l-3 10-6 10-11 12-10 8-9 4-4 1h-15l-13-4-11-6-14-12-20-20-11-14-7-11-5-10-2-6v-10l4-13 6-11 11-12 13-8z" fill="#313131"/>
<path transform="translate(1085,1042)" d="m0 0h11l11 2 16 8 13 10 17 16 7 7 11 14 6 9 4 10 2 13-2 11-6 12-9 11-10 9-12 6-8 2-14-1-12-4-11-6-15-13-20-20-11-14-9-16-3-8v-13l5-14 8-12 4-5 13-9 9-4z" fill="#313131"/>
<path transform="translate(1219,747)" d="m0 0h46l16 3 14 6 11 9 9 14 4 13v15l-4 11-9 14-10 9-10 5-18 4-25 2-26-1-17-3-10-4-12-9-8-11-5-12-1-5v-17l4-12 7-11 7-7 8-6 11-4z" fill="#313131"/>
<path transform="translate(493,1043)" d="m0 0h21l12 4 10 6 9 8 7 10 5 16v13l-5 14-8 12-11 13-12 13-12 11-10 8-14 8-10 2h-12l-17-4-11-8-9-11-8-16-2-9 1-14 7-14 10-13 9-10 7-7 5-6 8-7 10-9 16-9z" fill="#313131"/>
</svg>
