<?xml version="1.0" encoding="UTF-8"?>
<svg version="1.1" viewBox="0 0 2048 570" width="916" height="255" xmlns="http://www.w3.org/2000/svg">
<path transform="translate(211,7)" d="m0 0h15l20 2 23 2 24 5 14 7 14 11 2 1 7-10 8-7 14-5 10-1h13l22 3 14 5 15 8 13 10 12 11 9 13 16 28 13 24 9 16 16 29 13 23 14 25 25 45 14 23 12 19 1 3-1 1h-16l-16-1-18-4-15-6-15-8-14-10-13-12-15-16-12-18-13-22-8-16-14-24-13-24-13-23-10-16-8-10-7-7-9-5-3-1h-7l-5 9 1 7 9 17 13 22 14 25 13 23 15 26 12 22 13 22 9 16 9 12 8 8 14 9 10 4 9 2 9 1 91 1 1 3-10 14-13 15-9 9-13 9-16 8-9 2-10 1h-111l-2 5-11 16-5 7-4 2 13 1h70l50-1h27l3 2-1 7-8 17-11 16-9 10-9 9-14 9-7 2 2 7 8 14 2 5-1 7-8 16-9 12-13 14-18 12-13 6-11 3-7 1h-299l-1-2v-15l2-29 5-23 6-15 9-17 14-20 8-10 13-18 20-32-1-5-9-14-8-16-5-12-10 19-14 26-10 18-14 26-13 28-18 37-4-4-20-40-8-17-5-16-2-12 2-13 5-12 7-13 4-6h-12l-29 3-6-1-5-4-9-15-7-15-4-14-1-4v-22l5-17 8-16 12-23 12-21 15-28 10-18 28-50 12-21 15-26 16-28 13-23 3-3 8 16 8 17 7 21 1 6 1 20-4 21-7 18-11 21-12 22-15 26-14 25-12 21-25 45-4 9 1 9 3 3 16 3 6-1 9-15 17-29 14-24 13-22 14-24 10-17 14-24 16-27 8-14h3l8 16 12 27 3 5 58-1v-2l-6-10-16-27-17-29-16-27-16-28-9-15-7-11-1-4zm17 460-13 4-8 6-8 9-9 14-6 10v2l6-1 19-5 208-1 11-4 6-6 1-3v-8l-4-8-8-7-5-2z" fill="#585A5C"/>
<path transform="translate(544,396)" d="m0 0 3 1-3 11-8 15-12 16-14 14-14 9-7 2 2 7 8 14 2 5-1 7-8 16-9 12-13 14-18 12-13 6-11 3-7 1h-299l-1-2v-15l2-29 5-23 6-15 9-17 12-17 5-4 8-10 9-9 5-6 9-4 17-4 12-2h15l31 4 32 6 7 4 6 3 9 3 1 4-1 1 34 1h92l15-2 10-5 10-9 7-7 11-6 6-2 34-2zm-316 71-13 4-8 6-8 9-9 14-6 10v2l6-1 19-5 208-1 11-4 6-6 1-3v-8l-4-8-8-7-5-2z" fill="#585A5C"/>
<path transform="translate(150,8)" d="m0 0 3 3 14 30 7 21 1 6 1 20-4 21-7 18-11 21-12 22-15 26-14 25-12 21-25 45-4 9 1 9 3 3 16 3 6-1 21-35 4-4 12-20 8-13 5-10 3-5h2l-1 6 2 10 6 7v2h2v2l6 2 5 4v2l6-1 8-14 10-16 2 1-2 5h-2l-1 5h-2l-1 5h-2l-2 6-9 16-16 29-15 26-9 16-11 20-6 11-7 12-8 16-9 19-5 16-5 20v13l1 7-2 1-13-27-8-15-5-15-2-7-1-9 2-13 5-12 7-13 4-6h-12l-29 3-6-1-5-4-9-15-7-15-4-14-1-4v-22l5-17 8-16 12-23 12-21 15-28 10-18 28-50 12-21 15-26 16-28 13-23z" fill="#58595C"/>
<path transform="translate(211,7)" d="m0 0h15l20 2 23 2 24 5 14 7 14 11 2 1 7-10 8-7 14-5 10-1h13l22 3 14 5 15 8 13 10 12 11 9 13 16 28 13 24 9 16 16 29 13 23 14 25 25 45 14 23 12 19 1 3-1 1h-16l-16-1-18-4-15-6-15-8-14-10-13-12-15-16-12-18-13-22-8-16-14-24-13-24-13-23-10-16-8-10-7-7-9-5-3-1h-7l-5 9 1 7 9 17 6 10 4 10 9 16 1 4-5-5-5-8-4 1-9 11-6 13-1 13-3-3v-2h-2l-2-4v-3h-2l-8-16-16-27-15-26-15-24-10-13-9-11-14-14-18-13-11-5-11-2z" fill="#585A5C"/>
<path transform="translate(282,199)" d="m0 0h24l14 3 15 5 10 5 14 10 13 13 9 13 6 14 3 12v13h-1l-4-15-2-2-5 1-7 7-8 7-11 11h-2v2l-13 8-14 7-18 5-32 3h-19l-16-4-17-8-11-8-5-4-3 1-2 3-1-7v-13l7-23 4-9 7-12 13-14 13-10 16-8 16-5z" fill="#B5B7B7"/>
<path transform="translate(544,396)" d="m0 0 3 1-3 11-8 15-12 16-14 14-14 9-7 3h-189l-2-1 2-5 6-9 4-11 5-6h-69l-20 3-19 7-18 10-16 12-10 9-12 14-8 11-10 18-5 13-2 5h-1v-19l3-17 9-25 16-26 2-5 5-4 8-10 9-9 5-6 9-4 17-4 12-2h15l31 4 32 6 7 4 6 3 9 3 1 4-1 1 34 1h92l15-2 10-5 10-9 7-7 11-6 6-2 34-2z" fill="#818384"/>
<path transform="translate(907,254)" d="m0 0 34 1v136h-34l-10-19-27-54v72l-1 1h-35v-136h38l5 9 11 22 10 18 8 17 1 1-1-17v-50z" fill="#B4B6B6"/>
<path transform="translate(380,269)" d="m0 0 4 1 3 4 2 8 2-2v22l-3 15-6 16-7 14-10 13-9 9-8 6-2-1 1-2h3v-2l10-8 2-3-4 1-9 7-6 4h-2v2l-4 2-1 3 6-2v3l-13 6-14 4-19 1-19-2-15-4-16-8-10-7-10-9-10-13-9-15-5-14-3-13v-11l2 4 4-2 13 10 17 9 13 4 8 1h17l32-3 21-6 18-10 4-3h2v-2l8-7 11-11 8-7z" fill="#808283"/>
<path transform="translate(1932,255)" d="m0 0h72l14 5 8 7 5 8 3 7v15l-3 10-6 8-6 4h-2v2l6 1 9 8 5 9 2 7v11l-3 11-4 8-5 5-9 6-13 4h-72l-1-1zm36 27v26h19l8-3 5-6 1-5-2-6-3-3-8-2zm0 52v28h23l8-4 4-5v-9l-4-6-7-3z" fill="#B3B5B5"/>
<path transform="translate(691,255)" d="m0 0h37l1 94 2 5 5 4 9 3 7-1 5-3 4-5 1-4 1-93h37v98l-3 11-6 12-5 6-10 7-14 5-4 1h-24l-13-4-10-5-11-11-6-11-3-11-1-24v-72z" fill="#818384"/>
<path transform="translate(119,67)" d="m0 0 1 2-6 11-3 5-1 4h2l3 8 5 19 4 8 2 5h2l1 4 4 2 7-10 1 2-2 5h-2l-2 6-12 20-13 22-10 16-6 11-7 13-13 23-15 27-13 25-8 21-2 9h-2v-10l-1-5-6-2-8-6-6-5-3-3-6-1v-10l3-13 3-8 2-8 15-28 12-21 15-28 10-18 2-4h3l2-5 7-12 7-14 6-9 6-11 9-16 9-15z" fill="#D9DBDB"/>
<path transform="translate(1822,255)" d="m0 0h46l3 8 14 49 14 48 8 30-1 1h-36l-2-5-4-21v-3h-39l-1 10-5 17-1 2h-34l1-8 16-56 12-41 8-28zm22 33-10 40-1 5h23l-10-45z" fill="#818384"/>
<path transform="translate(1306,255)" d="m0 0h91v30h-53l-2-1v18l-1 6h46l1 5v23l-1 1h-41l-4-1v24h55v31h-91z" fill="#DADCDC"/>
<path transform="translate(1466,252)" d="m0 0h16l12 2 12 5 9 6 9 8-1 5-9 10-6 7h-2v2l-5-1-6-7-12-5-10-1-9 3-3 4 1 7 8 5 33 11 9 6 7 7 6 12 2 10v10l-3 10-6 10-8 8-12 6-12 3h-24l-15-4-11-6-10-8-6-7 1-4 6-7 8-7 5-5 4 2 7 6 12 6 7 2h11l8-4 3-6-2-6-4-4-32-11-13-7-9-8-4-6-3-8-1-12 3-13 6-9 8-8 14-7z" fill="#D7D9D9"/>
<path transform="translate(151,223)" d="m0 0h2l-1 6 2 10 6 7v2h2v2l6 2 5 4v2l6-1 8-14 10-16 2 1-2 5h-2l-1 5h-2l-1 5h-2l-2 6-9 16-16 29-15 26-9 16-11 20-6 11-7 12-8 16-9 19-5 16-5 20v13l1 7-2 1-13-27-8-15-5-15-2-7-1-9 2-13 5-12 7-13 10-16 13-24 5-9 3-8 8-13 9-15 4-4 12-20 8-13 5-10z" fill="#DADCDC"/>
<path transform="translate(378,15)" d="m0 0 23 1 16 7 12 7 11 9 11 10 9 13 16 28 13 24 9 16 16 29 13 23 9 16 4 10-1 2-7-10-2-3-5 1-8 7-8 5-5 10 1 5 7 12h-3l-6-10v-2h-2v-3h-2l-9-16-9-15-15-27-14-24-16-29-12-22-15-29-6-10-6-12-9-13-7-6-3-2z" fill="#D8DADA"/>
<path transform="translate(512,301)" d="m0 0h85l1 3-10 14-13 15-9 9-13 9-16 8-9 2-10 1h-60v-1l-34-1-8-1 4-2 3-12 1-8v-14l1-15 1-4 31-1h16l28-1z" fill="#818384"/>
<path transform="translate(282,199)" d="m0 0h24l14 3 15 5 10 5 14 10 13 13 3 4-1 3-7-8-7-7-6-4-4-1-1 6-6 12-11 13-9 7h-2v2l-15 8-12 3-17 3h-14l-15-3-6-3-13-8-9-4-5-3-4 1-3 4-3 7-1-3 5-14 6-10 9-11 12-11 14-9 17-7z" fill="#D9DBDB"/>
<path transform="translate(211,7)" d="m0 0h15l20 2 23 2 24 5 14 7 14 11 5 7 7 15 9 19 5 13 2 3 9 17 6 10 4 10 9 16 1 4-5-5-5-8-4 1-9 11-6 13-1 13-3-3v-2h-2l-2-4v-3h-2l-8-16-16-27-15-26-15-24-10-13-9-11-14-14-18-13-11-5-11-2z" fill="#D9DBDB"/>
<path transform="translate(1049,255)" d="m0 0h103v31h-34v105h-37v-105h-32l-1-4v-21z" fill="#DADCDC"/>
<path transform="translate(1172,255)" d="m0 0h104l1 4-1 27h-35v105h-36v-105h-33z" fill="#D9DBDB"/>
<path transform="translate(1543,255)" d="m0 0h103l1 1v30h-31l-4-1v106h-36v-105h-33l-1-5z" fill="#D9DBDB"/>
<path transform="translate(488,506)" d="m0 0h6l-1 5-9 13-7 7-7 8-18 12-13 6-11 3-7 1h-259v-1l173-1 2-5 2-6 1-15 4-13 1-2v-6l-1-5h39l16 2 31 2h30l17-2z" fill="#B0B2B2"/>
<path transform="translate(1673,255)" d="m0 0h36l1 1v98l-1 6h51v31h-87l-1-41v-93z" fill="#828485"/>
<path transform="translate(239,507)" d="m0 0h105l2 5v6l-4 10-2 17-1 8-4 6h-97l1-11-2-15-2-11 1-14z" fill="#818384"/>
<path transform="translate(544,396)" d="m0 0 3 1-3 11-8 15-12 16-14 14-14 9-7 3h-85v-2l6-2 6-7h2v-13l-2-5-10-2-21-1v-1l40-1 21-1 15-2 10-5 10-9 7-7 11-6 6-2 34-2z" fill="#D9DBDB"/>
<path transform="translate(982,255)" d="m0 0h36v136h-35l-1-1z" fill="#B6B8B8"/>
<path transform="translate(209,125)" d="m0 0 1 2-7 14 1 8 4 4 11 5 11 3 3 3 1 6-1 6-15 24-12 18-5 7-2 3-2-1-2 5-11 18-5 8-3 1-3-1-5-5-6-3v-2h-2l-7-9-2-11 2-5h-2l-1 4-5 8-6 11-10 17-8 12-1-2 15-26 9-15 14-24 10-17 14-24 2-2 1 1 14-24z" fill="#808283"/>
<path transform="translate(1932,267)" d="m0 0h1l2 81 5-6 5-2h19l2-8h35l23 2 8 4 1 1-1-7 3 3 4 11v11l-3 11-4 8-5 5-9 6-13 4h-72l-1-1zm36 67v28h23l8-4 4-5v-9l-4-6-7-3z" fill="#818384"/>
<path transform="translate(490,486)" d="m0 0 5 1 3 5v3h2l-3 9-3 4v-2l-22 5-12 1h-30l-43-3-4-1h-147v17l3 14 1 15-2 5h-58l1-2h2v-19l1-14 2-7 3-3 3-2h2l-1-3 16-4 208-1 11-4 5-5 2-3 2-2 7-1 5 1h10l4-1 16-1z" fill="#57595B"/>
<path transform="translate(1824,256)" d="m0 0h42l2 3 6 23 7 24 6 19 6 21-1 4-5-6-2-1-19-1-7-2-3-1-25-1-1-3h27l-7-31-3-12-3-7-4 17-7 24-2 3-3-3-8 1-11 3-5 5-3 8-4 16-9 29-2 1 2-9 7-25 6-21 7-24 8-30 4-13 1-9z" fill="#DADCDC"/>
<path transform="translate(209,8)" d="m0 0 17 4 11 6 12 9 10 9 11 11 13 17 10 15 13 22 17 29 12 21 4 8v2h2l3 9h-2l-6-11-4-6v-2h-2l-3-6-3-2-1-4-10-16-3 1-6-1-5 2h-8l-5-5-6-8-6-9-3-2v-2l-4-2-3-1 1 3 20 34 9 15 5 9-4-1-16-27-15-26-9-15-17-29-15-26-12-20-2-2z" fill="#57595B"/>
<path transform="translate(1425,285)" d="m0 0h1l1 14 3 10 6 8 11 8 9 4 12 1 17 4 8 3 20 2 9 5-1-9-5-9-10-9 2-1 8 7 6 8 3 7 2 10v10l-3 10-6 10-8 8-12 6-12 3h-24l-15-4-11-6-10-8-6-7 1-4 6-7 8-7 5-5 4 2 7 6 12 6 7 2h11l8-4 3-6-2-6-4-4-32-11-13-7-9-8-4-6-3-8-1-12z" fill="#818384"/>
<path transform="translate(1306,255)" d="m0 0h91v30h-53l-2-1v25h-2v-27h54v-26h-87l1 82 1 11 5-4 9-2 13-1 3 2 2-11h45v-22l2 2v23l-1 1h-41l-4-1v24h55v31h-91z" fill="#818384"/>
<path transform="translate(914,255)" d="m0 0h27v136h-34l-10-19-27-54v72l-1 1h-35v-126h1l1 56 1 33 3-5 6-3 15-1 4 2 1 2 1-41 3 3 8 16 12 25 1 4v-3l2-4 1-1h19l16-3 5 1 3 3 1-90 1-3h-25z" fill="#818384"/>
<path transform="translate(512,301)" d="m0 0h85l1 3-10 14-13 15-9 9-4 1-14 9-13 6-3 1h-20l3-13-1-7-8-13-10-13-11-6-35-2v-1l51-2z" fill="#B4B6B6"/>
<path transform="translate(364,120)" d="m0 0 3 3 13 23 6 11 2 6 13 24 12 22 6 10 1 4-4 2-8 10-13 4-6-1-6-5-16-24-17-29-3-5 1-16 7-13 8-10 2-2 4 1 8 12-8-16-5-9z" fill="#818384"/>
<path transform="translate(151,223)" d="m0 0h2l-1 6 2 10 6 7v2h2v2l6 2 5 4v2l6-1 8-14 10-16 2 1-2 5h-2l-1 5h-2l-1 5h-2l-2 6-9 16-16 29-15 26-3 6-1-2-3 3-4 6h-2v2l-6-1-4-6-4-4-4-9-7-10-1-4 4-9-11 17-1-2 15-26 4-6 4-4 12-20 8-13 5-10z" fill="#B6B8B8"/>
<path transform="translate(150,8)" d="m0 0 3 3 1 4-1 10-4 6-1 9 3 11 9 17 4 3v2h2v3h2l-1 5-13 25-7 12h-2l-2 6-5 5-5 7-5-3v-4h-2l-6-11-5-16-2-9-1-4h-2l1-6 8-14-3 4-15 25-6 11-5 9-10 17-6 11-5 9h-2l2-5 10-18 13-23 12-21 15-26 16-28 13-23z" fill="#818384"/>
<path transform="translate(211,7)" d="m0 0h15l20 2 23 2 24 5 14 7 14 11 5 7 7 15 6 12-1 4-7-10-3-4-4 1-16 12-5 5-1 2v7l5 13 7 13 10 17 3 7h-2l-14-24-17-29-12-18-11-14-9-10-10-10-18-13-11-5-11-2z" fill="#FBFBFB"/>
<path transform="translate(485,121)" d="m0 0 5 2 1 4h3l-2-6 3 3 10 19 13 23 14 25 4 7 4 10-1 2-7-10-2-3-5 1-8 7-8 5-5 10 1 5 7 12h-3l-6-10v-2h-2v-3h-2l-3-7-8-16-10-18-6-12-5-8-2-9 1-9 8-9h2v-2h2l2-6z" fill="#B4B6B6"/>
<path transform="translate(527,196)" d="m0 0 4 1 7 10-2-7 3 3 13 24 9 16 4 10 16 27v2l-2 1-11 1-4 1h-8l-7 1-7-6-10-13-13-16-8-11-1-5-7-12 1-6 6-9 10-6z" fill="#808283"/>
<path transform="translate(764,256)" d="m0 0h34v94l-2 9h-1v-8l-5-1-18 3-6 3h-2l-2 4-6 4-11 1-7-2v-1l11-1 7-3 3-3 3-1 1-3z" fill="#B6B8B8"/>
<path transform="translate(1934,256)" d="m0 0h65l17 3 6 4 3 5 5 8 2 11v7l-2 4-5-7-9 1-9 3-5 8-4 5-7 3-12 1h-13l2-4 19-1 8-3 4-5 1-7 1-4-5-5-6-2h-23l-1 2-1 21h-1v-6l-12-1h-7l-5-1v2l-4 4-1 6h-1z" fill="#D9DBDB"/>
<path transform="translate(362,12)" d="m0 0h13l22 3v1h-11l-8-1 4 4 8 7 9 14 6 12v3l8 16v2l-4-1-15-9-13-5-14-1-9 3-5 6-4 6-7-1-5-7-3-3-6-14-5-8 1-6 7-9 7-6 14-5z" fill="#818384"/>
<path transform="translate(1673,255)" d="m0 0h34v98h-1l-2-6-15 1-9 3-4 4-1 7h-1l-1-12h-1v-93z" fill="#B1B3B3"/>
<path transform="translate(515,392)" d="m0 0h30l3 2-1 7-2 2 1-6-7 1-34 2-12 5-8 6-11 11-8 5-5 2-15 2h-65v-1l12-2 13-3 14-2 5-3v-3l-4-2 2-5 2-8-15-2-4-3-15-2v3l-9 5-2 3 1 11 1 5h2l-1 4-2 2-4-1 1-5-4-8 2-9 4-5h2v-2l6-2-2-2 82-1z" fill="#4B4C4F"/>
<path transform="translate(488,506)" d="m0 0h6l-1 5-9 13-7 7-7 8-18 12-13 6-12 3-21-1 3-6 1-20 2-10v-6l-1-2-10-3v-1h59l17-2z" fill="#D7D9D9"/>
<path transform="translate(374,252)" d="m0 0 5 1 4 5 3 7h2l2 9v13h-1l-4-15-2-2-5 1-7 7-8 7-11 11h-2v2l-13 8-14 7-18 5-32 3h-19l-16-4-17-8-11-8-5-4-3 1-2 3-1-7v-13l2 4 1-2h5l10 9 11 6 17 7 14 2h13l31-4 19-6 11-5 8-5 7-6h2l2-4 7-8 9-11 4-5z" fill="#A0A1A2"/>
<path transform="translate(691,255)" d="m0 0h34v89l-2-4v-2l-5-1-6-2-6-1h-8l-3 3-1 9h-1l-2-17h-1v-72z" fill="#DADCDC"/>
<path transform="translate(1307,290)" d="m0 0h1l1 14 4-5 3-2 6-1h12l4 3 1-8h1v18l2-1h45l-1 25h-45l-1 14-4-4h-7l-13 2-6 4-2 4-1-15z" fill="#B5B7B7"/>
<path transform="translate(378,15)" d="m0 0 23 1 16 7 12 7 11 9 11 10 9 13 4 7 1 6-2-1v-2l-5-2v-2l-4-2-4-1-6 3-10 3-3 2v11l3 11 6 15 5 12v2h-2l-13-24-11-20-8-16-8-14-6-12-9-13-7-6-3-2z" fill="#F8F8F8"/>
<path transform="translate(1049,255)" d="m0 0h103v31h-34v105h-37v-105h-32l-1-4v-21zm1 1v27h32v71h1v-7l16-3 11-1 3 1 1 6h1v-67h34v-27z" fill="#818384"/>
<path transform="translate(202,407)" d="m0 0h8l-4 2-14 5-6 4-1 6 2 8 2 13 3 1 25-10 8-3h7l-2 2-18 6-16 8-11 7-12 9-10 9-12 14-8 11-10 18-5 13-2 5h-1v-19l3-17 9-25 16-26 2-5 5-4 8-10 9-9 5-6 9-4z" fill="#FAFAFA"/>
<path transform="translate(119,67)" d="m0 0 1 2-6 11-3 5-1 4h2l3 8 5 19 4 8 2 5h2l1 4 4 2 7-10 1 2-2 5h-2l-2 6-4 6-4 1-1 5-13 20-6 8-3 1-3-3-4-13-5-14-6-8-1-3v-8l14-27 2-6 14-24z" fill="#B5B7B7"/>
<path transform="translate(1172,255)" d="m0 0h104l1 4-1 27h-35v105h-36v-105h-33zm2 1v27h32v34l1 70h1l1-11v-30l17-2 7 1 3 3 1 5h1l1-69 35-1v-27z" fill="#818384"/>
<path transform="translate(1543,255)" d="m0 0h103l1 1v30h-31l-4-1v106h-36v-105h-33l-1-5zm1 1v27h33v29l1 74h1l1-33 1-4 4-2 8-1h10l4 3 1 6h1v-72h35v-27z" fill="#818384"/>
<path transform="translate(1442,297)" d="m0 0h11l7 4 13 6 24 7h2l-14-5 4-1 16 6 12 12 5 9 1 3v10l-2-4-8-4-20-2-16-5-17-3-7-1-11-6-10-9-4-7 1-6h2v-2l2-1z" fill="#B5B7B7"/>
<path transform="translate(834,255)" d="m0 0 37 1 18 36 7 13-1 2-9-6-8-1h-34l-5 5-1 5-1 15-2-4z" fill="#D8DADA"/>
<path transform="translate(23,234)" d="m0 0 1 2-3 6 12 4 5 4 5 9 4 14v11l-4 15-2 8-4 14-1 4h-2v-10l-1-5-6-2-8-6-6-5-3-3-6-1v-10l3-13 3-8 2-8z" fill="#B5B7B7"/>
<path transform="translate(230,465)" d="m0 0h259l3 7 8 15 1 7-3 1-3-7-5-1-13 2-14 1-7 1h-7l-6-1h-6l-2 4-2-13-6-8-6-4-3-1-190-1z" fill="#585A5C"/>
<path transform="translate(190,510)" d="m0 0h4v2l-4 3-4 2-2 21v16l-1 3-2 1 176 1v1l-195 1h-40l-1-2v-15h3l3-10 1 4 2 9h6 3l14-12 20-15 9-7z" fill="#4B4C4F"/>
<path transform="translate(282,199)" d="m0 0h24l14 3 15 5 6 4-3 1-15-6-8-2h-14l1 9-3 10-3 6-9 6-6 2h-10l-11-4v-2l-5-2-11-8-8 2-4 3-2-1 6-7 14-9 17-7z" fill="#FBFBFB"/>
<path transform="translate(938,259)" d="m0 0h1v130h-30l-5-8-12-23-1-7 3-3h19l16-3 5 1 3 3z" fill="#818384"/>
<path transform="translate(425,431)" d="m0 0h11l3 1 15 1 5 3 3 3v2h2l5 5 6 5 2 4-1 6-8 2-14 1-1 1h-49v-2l6-2 6-7h2v-13l-2-5-10-2-21-1v-1z" fill="#B5B7B7"/>
<path transform="translate(1014,255)" d="m0 0h4v136h-35l-1-1v-42h1v5l6-5 4-1h10l8 2 3 4 1 8 1-105z" fill="#818384"/>
<path transform="translate(1097,292)" d="m0 0h12l5 5 1 7v46h-1l-1-6-7-1-19 3-4 1v7h-1v-55l6-5z" fill="#B6B8B8"/>
<path transform="translate(347,88)" d="m0 0 2 3 9 17 6 10 4 10 9 16 1 4-5-5-5-8-4 1-9 11-6 13-1 13-3-3v-2h-2l-2-4v-3h-2l-5-15-7-15 2-10 5-6 4-8 6-7 4-1 3 1-5-11z" fill="#B3B5B5"/>
<path transform="translate(473,303)" d="m0 0h23v1l21 2 8 7 4 6v2l3 1 11 16 5 7 1 4-1 3-13 6-3 1h-20l3-13-1-7-8-13-10-13-11-6-35-2v-1z" fill="#A1A2A3"/>
<path transform="translate(764,256)" d="m0 0h34l-1 61h-1l-2-10-4-4h-9l-10 3-4 5-2 4h-1z" fill="#DADCDC"/>
<path transform="translate(490,486)" d="m0 0 5 1 3 5v3h2l-3 9-3 4v-2l-22 5-12 1h-30l-43-3v-1l32-1-48-1v-1l46-1 11-4 5-5 2-3 2-2 7-1 5 1h10l4-1 16-1z" fill="#808283"/>
<path transform="translate(1862,291)" d="m0 0 7 1 6 5 4 7v2h2l6 19 6 21-1 4-5-6-2-1-19-1-7-2-3-1-25-1-1-3h27l-7-31-1-7 5-4z" fill="#B5B7B7"/>
<path transform="translate(1223,293)" d="m0 0h8l3 3v2h2v2h2v53h-1l-2-7-5-2-16 1-5 1v30l-1 11h-1v-34l1-50 1-6 5-3z" fill="#B5B7B7"/>
<path transform="translate(1598,296)" d="m0 0 6 1 4 5 1 3v50h-1l-2-7-5-2h-10l-8 2-2 1-1 4-1 33h-1v-70l2-15 5-3z" fill="#B5B7B7"/>
<path transform="translate(362,12)" d="m0 0h13l22 3v1h-11l-8-1 9 9-2 7-3 2-10 2-5 4-10 2-10 3-7 2h-8l-8-8-1-3 7-10 8-7 14-5z" fill="#B5B7B7"/>
<path transform="translate(1674,256)" d="m0 0h33v47l-2-1v-3l-8-2-11 1-7 3-3 5-1 6h-1z" fill="#DADCDC"/>
<path transform="translate(216,405)" d="m0 0h14l-4 3 1 9 3 12 2 2 25-1-4 2-16 2h-12l-10 4-16 6-9 3-3-5-3-21 3-5 12-6 9-3v-1z" fill="#B5B7B7"/>
<path transform="translate(907,254)" d="m0 0h6l1 1 25 1-1 55h-1l-1-9-4-4h-14l-6 3-3 1v9h-1l-1-13z" fill="#D9DBDB"/>
<path transform="translate(983,256)" d="m0 0h33v31l-1 28h-1l-1-15-1-3-6-3h-16l-5 3h-2z" fill="#DADCDC"/>
<path transform="translate(691,255)" d="m0 0h34v1h-33l1 47 1 2 4-4 2-1h16l7 4 2 8v32l-2-4v-2l-5-1-6-2-6-1h-8l-3 3-1 9h-1l-2-17h-1v-72z" fill="#B1B3B3"/>
<path transform="translate(225,13)" d="m0 0 5 1 11 7 13 10 16 16 13 17 10 15 13 22 17 29 12 21 4 8v2h2l3 9h-2l-6-11-4-6v-2h-2l-3-6-3-2-1-4-10-16-8-12-6-10v-2h-2l-1-5h-2l-7-11-7-5-5 1h-6l-4-3-3-8v-8l1-5-3-10-3-1v-2l-6-2-3-4-1-6-3-1-5-5-9-6-5-3z" fill="#4B4C4F"/>
<path transform="translate(151,223)" d="m0 0h2l-1 6 2 10 6 7v2h2v2l6 2 5 4v2l6-1 8-14 10-16 2 1-2 5h-2l-1 5h-2l-1 5h-2l-2 6-9 16-7 12-4 4-2 4h-5l-6-8-7-6-7-10v-13l5-15 5-7z" fill="#A1A2A3"/>
<path transform="translate(10,259)" d="m0 0 1 3-5 15-1 6v9l5 1 5 5 7 6 11 6 2 7v12l-4 20-2 2-4-1-6-8-8-15-5-14h-2l-2-9v-22l5-17z" fill="#808283"/>
<path transform="translate(344,507)" d="m0 0h39v1l-19 1 4 4-1 9-3 6-3 16-4 11-4 4h-18l2-5 2-6 1-15 4-13 1-2v-6z" fill="#A0A1A2"/>
<path transform="translate(403,52)" d="m0 0 3 1 12 23 10 19 16 29 15 27 13 22 12 22 15 25v2h2v3h2l7 12 12 16 8 10-1 3-5-5v-2l-4-2-6-5-1-3h2l1 1-4-6-2 1-2-5-3-5-2-2-7-11-1-4-3 1-3-4v-2h-2v-5l-3-1-1-6-6-9-1-3-2-2-2-7-2-1-5-10-3-3-1-4-3-3-2-4h-2l-7-8-3-2 1 4-1 3-5 3-7-2-8-9v-2l-4-2-6-9 1-2 7 9 7 6v2l4 2 4 1 2-4 2-7 4 1 7 9-8-14-8-13-4-7-4-10-7-12-3-7-2 3-4-1-3-4 1-2 4 1 1-5-6-12z" fill="#4E4F52"/>
<path transform="translate(544,396)" d="m0 0 3 1-3 11-8 15-12 16-14 14-7 5-2-1 2-2h-6l-1-4 8-11 4-9 4-6 4-5 5-10 6-7 12-6z" fill="#B0B2B3"/>
<path transform="translate(246,432)" d="m0 0h28l-2 2-16 1-13 1-15 8-15 6-5 3-7 3h-4v2l-3 2h-3v2l-13 8-7 4-8 7-2 2h-2v3l-4 6-2-1-1 1-6 9-3 7-2 3-2-1 1 4h-2l-2 7-2 4-1 5 1 5 5-4 3 1 1 4-1 6-2-3v-3l-6 3h-2l-2-9 1-2h-2l1-7 10-19 10-14 10-11 7-8 12-10 15-10 16-8 16-6z" fill="#4F5053"/>
<path transform="translate(70,362)" d="m0 0 1 3-4 8-5 12v12l1 3 5 2v2h2v2l4 2 6 9v3h2l5 6 2 15-2 9v13l1 7-2 1-13-27-8-15-5-15-2-7-1-9 2-13 5-12z" fill="#B5B7B7"/>
<path transform="translate(1172,255)" d="m0 0h104l1 4-1 27h-35v105h-36v-105h-33zm2 1v27h32v34l1 71 1 1h30l1-105 35-1v-27z" fill="#494A4D"/>
<path transform="translate(1543,255)" d="m0 0h103l1 1v30h-31l-4-1v106h-36v-105h-33l-1-5zm1 1v27h33v29l1 77h31v-106h35v-27z" fill="#545658"/>
<path transform="translate(2e3 323)" d="m0 0h12l11 5h3l-2-1v-2l4 2 3 3 2 6-1 4-6-4-3-1-23-2-35-1-1 10-5-1h-15l-6 3-3 4-1 7h-1v-12l1-9 3-5 6-3 15-1 10 1z" fill="#9FA0A1"/>
<path transform="translate(1830,292)" d="m0 0 6 1 3 2 1 7-7 24-2 3-3-3-8 1-11 3-5 5-3 8-4 16-9 29-2 1 2-9 7-25 8-28 2-1 9-27 7-4z" fill="#B5B7B7"/>
<path transform="translate(515,173)" d="m0 0 3 1 9 14-1-3-3-5 1-3 12 21 4 10-1 2-7-10-2-3-5 1-8 7-8 5-5 10 1 5 7 12h-3l-6-10v-2h-2v-3h-2l-3-7-3-10 3-10 5-6 8-7z" fill="#A0A1A2"/>
<path transform="translate(202,407)" d="m0 0h8l-4 2-14 5-6 4-1 6 2 8 2 13 3 1 25-10 8-3h7l-2 2-18 6-16 8-11 7-5 3-7 2-1 1h-5l-2-2 1-7 2-11 2-12-5 4 2-4 10-10 5-6 9-4z" fill="#D9DBDB"/>
<path transform="translate(763,255)" d="m0 0h37v98l-3 11-6 12-5 6-10 7-14 5-4 1h-24l-13-4-10-5-11-11-6-11-3-11v-44h1l1 30 2 18 4 11 8 10 10 7 10 4 14 2h11l12-2 12-5 9-7 7-10 4-10 1-7 1-94h-34v95l-2 4-2-1 2-6z" fill="#505154"/>
<path transform="translate(725,255)" d="m0 0h3l1 94 2 5 5 4 8 3-3 2 9 1 4 1-3 1h-9l-10-4-6-7v-3l-4-1v-2l-14-1h-10l-1 1-1 10-2-2-1-11 1-9 4-4h8l11 2 6 3 1 2z" fill="#8D8E90"/>
<path transform="translate(928,331)" d="m0 0h5l4 4 1 7v13h-1l-1-8-7-1-16 3h-19l-2 4 1 3h-2l-7-14v-5l4-3 22-1 10-1z" fill="#A0A1A2"/>
<path transform="translate(1306,255)" d="m0 0h91v30h-53l-2-1v25h-2v-27h54v-26h-87l1 132h86v-27h3v30h-91z" fill="#68696B"/>
<path transform="translate(1443,321)" d="m0 0 14 1h7l16 2h26l7 3 5 6 4 2 1 3v10l-2-4-8-4-20-2-16-5-17-3-7-1-11-6z" fill="#A0A1A2"/>
<path transform="translate(230,465)" d="m0 0h259l2 8-29-3-13-1-9-1-4 1-2 4h-3l-1 3-7-6-5-2-190-1z" fill="#4F5053"/>
<path transform="translate(367,56)" d="m0 0 14 1 13 5 13 8-1 2-7-1-6 1-1 3 7 1 5 5 1 8-1 4-2 1h-7l-5-1-2-6-1-7-4-3-5-2-2-5v-5h-2v-2l-8-4-8 2v-2z" fill="#494A4D"/>
<path transform="translate(375,239)" d="m0 0 3 1 6 10 6 14 3 19v28l-3 9-8 20-7 12-12 13-11 10-13 8-12 5-5 2-16 2h-13l-15-2-19-5-1-2 7 1 18 4 21 1 15-2 15-5 8-4h-2-4l1-4 4-1v-2l11-7 7-6 3 1-2 4-8 7h-2v2h-3l1 2 11-9 7-7 10-14 9-21 4-14 1-7v-22l-4-18-7-16z" fill="#4A4C4E"/>
<path transform="translate(914,255)" d="m0 0h27v136h-34l-10-19-27-54-1 51-2 1v-62l3 3 8 16 12 25 18 35 1 1 30 1-1-5 1-128h-25z" fill="#4D4E51"/>
<path transform="translate(982,255)" d="m0 0h32v1h-31l1 80 6-5h13l9 4 2 3 2-1v24l-2 1-1-9-4-4-6-1h-10l-6 1-2 4h-2l-1-5z" fill="#9A9C9D"/>
<path transform="translate(109,86)" d="m0 0 1 3h2l3 8 5 19 4 8 2 5h2l1 4 4 2 7-10 1 2-2 5h-2l-2 6-4 6-4 1v3l-5-1-8-20-8-16-3-9 1-6z" fill="#A1A2A3"/>
<path transform="translate(1844,284)" d="m0 0 2 3-3 9-8 32-2 5h23l-6-21-3-15v-5l2 4 8 33v6h-27l-1 3-12 3-10 3-6 3-2 3 1-7 3-8 5-5 9-3 7-2 6 1h2l7-24 4-17z" fill="#98999B"/>
<path transform="translate(1822,255)" d="m0 0h46l3 8 14 49 14 48 8 30-1 1h-36l-2-5-4-21v-3h-39l-1 8h-2l1-8 2-3h40l6 26v3h26l6-1-12-45-6-19-5-17-8-27-5-20-1-2h-42l-2 1z" fill="#535457"/>
<path transform="translate(380,19)" d="m0 0 5 2 2 3-2 7-3 2-10 2-5 4-10 2-10 3-7 2h-8l-5-5v-2l7-1 21-9 13-1 6-5 5-3z" fill="#A0A2A3"/>
<path transform="translate(366,58)" d="m0 0 4 2 4 3v2h2l2 9 8 4 2 2 2 13-5-1-7-8-3-3-1-5-11-3h-10l-2 5-3 6-1 5-2-3-8-20 1-3 4 7 7 1 6-9 4-2z" fill="#585A5C"/>
<path transform="translate(182,516)" d="m0 0 1 3-2 35-4 4-3 1h-14v-2l5-4 2-6 2-14 3-9 8-7z" fill="#585A5C"/>
<path transform="translate(1506,316)" d="m0 0 5 2 8 8 6 12 2 10v10l-3 10-6 10-8 8-12 6-12 3h-24l-15-4-11-6-10-8-6-7v-3l4 2 7 8 9 6 11 5 9 2 18 1 16-2 12-5 8-7 6-9 3-10v-14l-3-12-7-9-7-6z" fill="#525356"/>
<path transform="translate(5,277)" d="m0 0 9 3 9 9 7 8 7 6 1 3-1 15-1 4h-2v-10l-1-5-6-2-8-6-6-5-3-3-6-1v-10z" fill="#A0A1A2"/>
<path transform="translate(406,433)" d="m0 0h17l6 3 3 5 2 18-4 4-26 2v-2l6-2 6-7h2v-13l-2-5-10-2z" fill="#A1A2A3"/>
<path transform="translate(1103,328)" d="m0 0h7l4 3 1 6v13h-1l-1-6-7-1-19 3-4 1v7h-1v-16l1-6 5-2z" fill="#A1A2A3"/>
<path transform="translate(1693,332)" d="m0 0h10l2 1 2 8v12h-1l-2-6-15 1-9 3-4 4-1 7h-1v-15l2-8 5-5z" fill="#A1A2A3"/>
<path transform="translate(1321,329)" d="m0 0h21l7 2v1l-7 1-1 3-1 11-4-4h-7l-13 2-6 4-2 4v-15l1-3h2v-3z" fill="#A0A1A2"/>
<path transform="translate(1150,258)" d="m0 0 2 2v26h-34v105h-37v-23h1l1 20 33 1v-106h34z" fill="#5C5D5F"/>
<path transform="translate(359,124)" d="m0 0 5 1 5 8-1 2-4 1-9 11-6 13-1 11-3-4-3-8v-12l4-9 7-8 4-5z" fill="#A1A2A3"/>
<path transform="translate(1596,330)" d="m0 0h7l5 4 1 5v16h-1l-2-7-5-2h-10l-8 2-2 1-2 4v-17l5-5z" fill="#A1A2A3"/>
<path transform="translate(784,336)" d="m0 0h8l4 4 2-4v14l-2 9h-1v-8l-5-1-18 3-6 3-2-1 2-11 8-6z" fill="#9FA0A1"/>
<path transform="translate(1872,328)" d="m0 0h8l8 6 2 1 3 11-1 4-5-6-2-1-19-1-7-2-3-1-25-1v-1h29l-1-3 4-4z" fill="#A0A1A2"/>
<path transform="translate(1220,329)" d="m0 0h11l5 3 2 6v15h-1l-2-7-5-2-16 1-5 1v-13l6-3z" fill="#A1A2A3"/>
<path transform="translate(70,362)" d="m0 0 1 3-4 8-5 12-1 3v19l4 15 3 7v3l10 3 6 5 1 3v11h1l2 16-2 1-13-27-8-15-5-15-2-7-1-9 2-13 5-12z" fill="#9FA0A1"/>
<path transform="translate(847,332)" d="m0 0h14l6 4v14l-3-3-8-1-13 2-4 3-2 3v-14l3-5z" fill="#A1A2A3"/>
<path transform="translate(217,20)" d="m0 0 5 3 8 16 4 6h3v2h2l-1 6 5 9 5 2-1 4 9 16 6 9 6 11 26 44 5 9-4-1-16-27-15-26-9-15-17-29-15-26-6-10z" fill="#525356"/>
<path transform="translate(237,433)" d="m0 0 2 1 1 2-9 4-19 7-5 4-9 4-12 7-7 5-5 2-1-2h2l1-4 5-5 10-7 16-9 19-7z" fill="#4E4F52"/>
<path transform="translate(1174,255)" d="m0 0h102l1 4-1 27h-35v103h-1l-1-93h-1v-12l1-1h35v-27h-100z" fill="#707173"/>
<path transform="translate(1014,255)" d="m0 0h4v136h-35l-1-1v-42h1l1 41 31-1 1-132z" fill="#4A4C4E"/>
<path transform="translate(1543,255)" d="m0 0h103l-2 4v-3h-100v27h33l1 29v45l-1 32h-1v-103h-33l-1-5z" fill="#7F8182"/>
<path transform="translate(225,505)" d="m0 0h146l49 1-1 2h-179l-17-1z" fill="#545558"/>
<path transform="translate(2032,332)" d="m0 0 3 3 4 11v11l-3 11-4 8-5 5-9 6-13 4h-72l-1-1v-44h1l1 43 66-1 14-3 10-6 5-5 4-7 2-6 1-13-3-12z" fill="#4B4D4F"/>
<path transform="translate(353,72)" d="m0 0h10l9 3 3 3 3 5 7 7v2l5 1 1 5 10 17 14 24 16 30 8 14 2 6h-2l-11-20-11-19-16-29-13-22-9-11-7-7-9-5-11-2z" fill="#515355"/>
<path transform="translate(1306,277)" d="m0 0h1l1 111h86v-27h3v30h-91z" fill="#4B4C4F"/>
<path transform="translate(1440,347)" d="m0 0 4 2 7 6 12 6 7 2h11l8-4 3-3 2 1-1 5-8 5-3 1h-13l-12-4-14-7-11 3-7 8-2-2 9-11z" fill="#B2B4B4"/>
<path transform="translate(115,379)" d="m0 0 1 4-2 1-1 4-2 6h-2l-2 11-3 6-1 1-4 16-3 7-2 11-2 5h-2l1-7-2 6h-1v-9l6-22 7-16 11-21z" fill="#4F5053"/>
<path transform="translate(223,405)" d="m0 0h7l-4 3 1 9 3 12 2 2 25-1-4 2-16 2h-15l-3-4-2-7-4-9v-5z" fill="#A1A2A3"/>
<path transform="translate(1466,252)" d="m0 0h16l12 2 8 3v3l2 1-8-1-12-1h-19l-17 4-9 5-2-1 7-8 11-5z" fill="#E2E3E3"/>
<path transform="translate(763,255)" d="m0 0h37v98l-3 1 1-98h-34v95l-2 4-2-1 2-6z" fill="#646668"/>
<path transform="translate(1673,314)" d="m0 0h1v75h83v-27h3v29h-87z" fill="#4B4C4F"/>
<path transform="translate(1934,256)" d="m0 0h65l14 2v2l6 2-1 2-8-2-20-2-54 1-2 2z" fill="#F4F4F4"/>
<path transform="translate(1707,255)" d="m0 0 3 1v105h-3z" fill="#686A6B"/>
<path transform="translate(122,360)" d="m0 0 1 4-9 15-8 16-9 19-4 10-1-3 1-3 2-19 4-10 6-7 4-1 2-4 8-11z" fill="#F9F9F9"/>
<path transform="translate(1825,359)" d="m0 0h40l6 26v3h33v-2h2l1 4-1 1h-36l-2-5-4-21v-3h-39l-1 8h-2l1-8z" fill="#4B4C4F"/>
<path transform="translate(1386,311)" d="m0 0 2 2v23l-1 1h-41l-4-1v26h-2v-26l1-3h45z" fill="#56575A"/>
<path transform="translate(1172,255)" d="m0 0h2v28h32l1 34v46h-1l-1-6v-71h-33z" fill="#57585B"/>
<path transform="translate(1516,267)" d="m0 0 4 2 4 4-1 5-9 10-6 7h-2v2l-5-1-6-7-12-5-10-1-9 3-3 4 1 7 2 3-5-2-2-3 1-8 5-5 3-2h17l13 6 7 6 4-1 12-13 1-4z" fill="#57585B"/>
<path transform="translate(246,432)" d="m0 0h28l-2 2-16 1-13 1-15 8-15 6-5 3-7 3h-4v2l-3 2h-3v2l-13 8-3-1 11-8 15-9 8-3 5-4 23-8 2-4z" fill="#494A4D"/>
<path transform="translate(505,399)" d="m0 0h17l-5 4-16 4-9 4-9 8-10 6-4 1 19-19 11-6z" fill="#F9F9F9"/>
<path transform="translate(559,301)" d="m0 0h38l1 3-5 7-4 1 1-5-25-1-27-3v-1z" fill="#D9DBDB"/>
<path transform="translate(485,298)" d="m0 0h7l20 3v1l-11 1-28 1h-16l-21-1 6-3 36-1z" fill="#4C4D50"/>
<path transform="translate(1425,285)" d="m0 0h1l1 14 3 10 6 8 11 8 14 6 24 8 8 5 1 2v9l-2 2-1-9-5-5-32-11-13-7-9-8-4-6-3-8-1-12z" fill="#505254"/>
<path transform="translate(1820,261)" d="m0 0h1v6l-7 24-7 26-7 23-5 19-9 31-2 1 1-8 16-56 12-41z" fill="#959798"/>
<path transform="translate(153,446)" d="m0 0 1 2-12 20-4 6-7 19-3 12-2 11v25l-2 10h-1l-1-7v-12l1-17 5-23 6-15 9-17z" fill="#898B8C"/>
<path transform="translate(1611,312)" d="m0 0h1v79h-36l1-34h1v32h31v-20l1-1z" fill="#626466"/>
<path transform="translate(1342,360)" d="m0 0h55l-2 4h-55z" fill="#A2A4A4"/>
<path transform="translate(414,129)" d="m0 0 4 4 7 8 4 3v2l4 2 4 1 2-4 2-7 4 1 9 12-1 2-8-8v3l-1 4-5 3-7-2-8-9v-2l-4-2-6-9z" fill="#494A4D"/>
<path transform="translate(503,270)" d="m0 0 13 7 6 4 12 5 5 1 6-1 2 3 5 1 4 4v2l-14-3-15-6-15-8-9-6z" fill="#4D4E51"/>
<path transform="translate(63,264)" d="m0 0 2 1-2 5h-2l-1 5-3 4v3h-2l-2 6-1 5h-2l-1 6-2 1-1 5-3 7-2 2-1 4h-2l1-8 9-21 12-23z" fill="#4F5153"/>
<path transform="translate(217,20)" d="m0 0 5 3 8 16 4 6h3v2h2l-1 6 5 9 5 2-1 4 3 6v2h-2l-11-19-14-24-6-10z" fill="#4F5053"/>
<path transform="translate(2032,332)" d="m0 0 3 3 4 11v11l-3 11-4 8-5 5-9 6-13 4h-4l-1-3 14-3 10-6 5-5 4-7 2-6 1-13-3-12z" fill="#4E4F52"/>
<path transform="translate(515,392)" d="m0 0h30l3 2-1 7-2 2 1-6-7 1h-20l-5-2z" fill="#636567"/>
<path transform="translate(835,255)" d="m0 0h37l5 9 11 22 10 18 8 17 3 5-1 3-12-23-4-7-15-29-6-13-36-1z" fill="#666769"/>
<path transform="translate(1049,255)" d="m0 0h103v5h-1l-1 23h-1v-27h-99v22l-2 4v-21z" fill="#8C8E8F"/>
<path transform="translate(235,436)" d="m0 0 3 1-10 4-16 6-5 4-9 4-12 7-7 5-5 2-1-2h2v-2h3v-2h3v-2l8-5 2-2h4v-2l7-3 12-7z" fill="#585A5C"/>
<path transform="translate(86,336)" d="m0 0 1 2-5 11-4 11-3 10-5 6-5 3v-5l3-4 3-10 10-16z" fill="#F5F6F6"/>
<path transform="translate(1967,280)" d="m0 0h23l9 4 3 4v5l-2-1-2-6-10-2-18-1-2-1v28h-2v-29z" fill="#555759"/>
<path transform="translate(1824,256)" d="m0 0h42v2l-20 2-18 1-4 1-2 5h-1v-9z" fill="#F0F1F1"/>
<path transform="translate(1966,332)" d="m0 0h24l8 3 5 5 1 7-2-3-3-5-7-3-19-1-5-1 1 29h-3z" fill="#505153"/>
<path transform="translate(386,394)" d="m0 0h13v1h-8v3l-9 5-2 3 1 11 1 5h2l-1 4-2 2-4-1 1-5-4-8 2-9 4-5h2v-2l6-2z" fill="#494A4D"/>
<path transform="translate(459,149)" d="m0 0 3 3 4 8 4 4 8 14 8 16 11 20-2 1-14-24-15-27-7-12z" fill="#DEE0E0"/>
<path transform="translate(2e3 350)" d="m0 0 1 4-4 7-6 4-5 1h-23l-2-2h4v-2l22-1 8-4 3-4h2z" fill="#ACAEAE"/>
<path transform="translate(70,362)" d="m0 0 1 3-4 8-5 12-1 3v19l4 15 8 18 1 4-3-3-7-15-5-16-2-12 2-13 5-12z" fill="#898A8B"/>
<path transform="translate(1822,255)" d="m0 0h46l3 8 10 36-1 3-3-6-9-32-2-7h-42l-2 1z" fill="#68696B"/>
<path transform="translate(271,99)" d="m0 0 5 3 8 11 5 6 4 2 5-1 3-1v-2l5 1 5 3 1 3-8-1-5 2h-8l-5-5-6-8-6-9-3-2z" fill="#494A4D"/>
<path transform="translate(2022,264)" d="m0 0 6 5 6 13v15l-3 10-6 8-8 5-4-1 9-6 6-7 3-12-1-13-3-9-5-6z" fill="#57585A"/>
<path transform="translate(1385,315)" d="m0 0h1v18h-27l3-3 13-4 7 2 3 2z" fill="#A0A1A2"/>
<path transform="translate(1205,357)" d="m0 0h1l1 6 1 25 30 1 1-3 2 5h-36z" fill="#4B4D4F"/>
<path transform="translate(359,358)" d="m0 0 3 1-2 4-8 7h-2v2h-3l-1 5h-5l-5 1 1-4 4-1v-2l11-7z" fill="#595B5D"/>
<path transform="translate(211,7)" d="m0 0h15l20 2 23 2 24 5v1l-9-1-19-3-45-4v2l-8-1z" fill="#B5B7B7"/>
<path transform="translate(142,329)" d="m0 0 1 4-1 2h-2l-2 6-10 20-6 9-3 1 2-6 5-9 13-24z" fill="#4F5053"/>
<path transform="translate(1343,309)" d="m0 0h32l11 1-1 2h-46v-2z" fill="#DADCDC"/>
<path transform="translate(834,342)" d="m0 0h1l1 47 33-1v3h-35z" fill="#4C4D50"/>
<path transform="translate(1866,373)" d="m0 0h2l3 12v3h33v-2h2l1 4-1 1h-36l-2-5z" fill="#4D4E51"/>
<path transform="translate(167,47)" d="m0 0h2l5 15 1 6 1 20-2 12h-2v-23l-1-16-4-11z" fill="#4D4E51"/>
<path transform="translate(183,406)" d="m0 0 1 2v6l-5 4-7 8-10 11-5 6v-3l8-10 13-18 3-5z" fill="#5D5E60"/>
<path transform="translate(225,505)" d="m0 0h45l25 1v1l-55 1-17-1z" fill="#494A4D"/>
<path transform="translate(154,215)" d="m0 0 2 1-6 11-5 8-6 11-10 17-8 12-1-2 15-26 9-15z" fill="#656668"/>
<path transform="translate(413,466)" d="m0 0h33v1l-10 2-2 4h-3l-1 3-7-6-10-3z" fill="#4E4F52"/>
<path transform="translate(1822,371)" d="m0 0h1l-1 9-4 11h-33l1-2 29-1 3-7 3-9z" fill="#4A4B4E"/>
<path transform="translate(93,319)" d="m0 0 1 3-13 24-5 7-8-1 1-2 8-2 2-6 6-12 3-5 2-1 2-4z" fill="#4E4F52"/>
<path transform="translate(1844,284)" d="m0 0 2 3-3 9-8 32-3 6-1-2 5-21 3-9 4-17z" fill="#585A5C"/>
<path transform="translate(1803,327)" d="m0 0h2l-8 32-9 29-2 1 2-9 7-25 6-21z" fill="#C1C3C3"/>
<path transform="translate(1049,278)" d="m0 0h1v5h32l-1 4-32-1z" fill="#505254"/>
<path transform="translate(1710,360)" d="m0 0h50v2l-5 1-46-1z" fill="#818384"/>
<path transform="translate(1081,368)" d="m0 0h1l1 20h34l1 3h-37z" fill="#4C4E50"/>
<path transform="translate(148,11)" d="m0 0h2l-2 5-12 22-14 24-1-3 15-27z" fill="#555658"/>
<path transform="translate(5,311)" d="m0 0 2 2 6 16 8 15 6 8 3 2v2l-5-2-7-10-10-19-3-9z" fill="#56575A"/>
<path transform="translate(468,235)" d="m0 0 5 5 16 17 7 7 7 6-1 2-13-11-9-9-7-8-5-6z" fill="#555659"/>
<path transform="translate(190,510)" d="m0 0h4v2l-4 3-4 2-2 21-2 1v-22l-2-1 3-3z" fill="#4A4B4E"/>
<path transform="translate(197,227)" d="m0 0 2 1-2 5h-2l-1 5h-2l-1 5h-2l-2 6-9 16-6 10-1-2 4-9h2l3-9 12-20z" fill="#ABACAD"/>
<path transform="translate(1549,283)" d="m0 0h28v3h-34v-2z" fill="#4B4C4F"/>
<path transform="translate(867,308)" d="m0 0 3 3 8 16 9 19v2h-2l-14-29-2-2-2 4z" fill="#4E4F52"/>
<path transform="translate(68,350)" d="m0 0m-3 0 10 2v1l-25 2h-13l3-2 5-2z" fill="#555658"/>
<path transform="translate(2e3 301)" d="m0 0 1 2-4 5-7 3-12 1h-13l3-3 20-1 7-3z" fill="#D9DBDB"/>
<path transform="translate(385,157)" d="m0 0 3 3 15 27 9 15v2l-3-1-13-24-11-20z" fill="#666869"/>
<path transform="translate(258,383)" d="m0 0 7 1 18 4 18 1v3l-18-1-17-4-8-3z" fill="#4E4F52"/>
<path transform="translate(362,12)" d="m0 0h13l22 3v1h-22l-20-1v-1h7z" fill="#CED0D0"/>
<path transform="translate(693,257)" d="m0 0h32v6l-5-3h-21l-5 1-1 2z" fill="#FDFDFD"/>
<path transform="translate(169,276)" d="m0 0 1 3-13 24-7 12h-2l1-4 10-18 6-10z" fill="#DEDFDF"/>
<path transform="translate(153,446)" d="m0 0 1 2-12 20-4 6-4 10h-2l1-5 10-19z" fill="#8E9091"/>
<path transform="translate(1795,352)" d="m0 0 1 3-10 35-2 1 1-8 8-28z" fill="#757779"/>
<path transform="translate(1545,257)" d="m0 0h17l-4 2-10 2-1 11v11h-2z" fill="#FDFDFD"/>
<path transform="translate(89,114)" d="m0 0 3 1-8 13-8 15-7 12h-2l2-5 10-18z" fill="#9C9E9E"/>
<path transform="translate(244,210)" d="m0 0m-1 1v3l-10 8-10 9-6 7v-3l6-8 11-10z" fill="#525356"/>
<path transform="translate(130,525)" d="m0 0 3 4 1 6 5-4 3 1 1 4-1 6-2-3v-3l-6 3h-2l-2-9 1-2h-2z" fill="#494A4D"/>
<path transform="translate(182,347)" d="m0 0h2l15 27h-3l-9-15-5-9z" fill="#535456"/>
<path transform="translate(111,76)" d="m0 0 2 2-12 20-6 11-3 5-2-1 14-25z" fill="#898A8B"/>
<path transform="translate(252,197)" d="m0 0h8v2l4 2-8 3-6-1-3-3z" fill="#818384"/>
<path transform="translate(2032,332)" d="m0 0 3 3 4 11v11l-2 9-2-1 1-17-3-12z" fill="#535457"/>
<path transform="translate(1050,256)" d="m0 0h16l4 1v2l-18 2-2-2z" fill="#FDFDFD"/>
<path transform="translate(222,210)" d="m0 0h3l-2 7-3 4h-2v2l-4-1 2-7z" fill="#818384"/>
<path transform="translate(201,136)" d="m0 0 1 3-13 22-4 6-1-3 12-21z" fill="#57585B"/>
<path transform="translate(1439,348)" d="m0 0 2 3-5 5-11 12-2-2 9-11z" fill="#B7B9B9"/>
<path transform="translate(869,357)" d="m0 0h1v33l-2-2-1-3v-15l1-1z" fill="#6F7173"/>
<path transform="translate(759,355)" d="m0 0 3 1-3 3h-2l1 4-8 2-9-1-3-2 11-1 7-3z" fill="#BCBEBF"/>
<path transform="translate(1757,362)" d="m0 0h3v27l-3-1z" fill="#4D4E51"/>
<path transform="translate(1440,347)" d="m0 0 4 2 7 6 12 6 11 3v1l-10-1-10-4-14-10z" fill="#7F8182"/>
<path transform="translate(480,508)" d="m0 0h7l-1 2-6 2-7 1h-16l3-2 17-2z" fill="#F1F1F1"/>
<path transform="translate(70,362)" d="m0 0 1 3-4 8-5 12-3 9h-1l1-9 5-12z" fill="#909293"/>
<path transform="translate(1803,322)" d="m0 0h1l-1 8-6 23h-3l4-16z" fill="#8E9091"/>
<path transform="translate(119,275)" d="m0 0 1 2-2 5h-2l-1 5-8 13-6 9-1-2 15-26z" fill="#A0A2A3"/>
<path transform="translate(1858,334)" d="m0 0 2 1v2h-30v-2z" fill="#B7B9B9"/>
<path transform="translate(1516,267)" d="m0 0 4 2 4 4-1 5-8 9h-3l2-4 6-7-2-6z" fill="#505154"/>
<path transform="translate(314,201)" d="m0 0 10 2 12 5 5 3-3 1-15-6-8-2z" fill="#F5F5F5"/>
<path transform="translate(209,8)" d="m0 0 17 4-1 2-9 1-2 2-5-6z" fill="#515355"/>
<path transform="translate(1879,301)" d="m0 0 3 1 8 28h-3l-4-14-4-13z" fill="#5A5B5E"/>
<path transform="translate(2e3 292)" d="m0 0 2 1-1 8-5 5-7 3-21 1v-2l19-1 8-3 4-5z" fill="#A0A2A2"/>
<path transform="translate(91,436)" d="m0 0 2 2 2-2-1 12-2 3h-2l1-7-2 6h-1v-9l1-4z" fill="#4D4E51"/>
<path transform="translate(1491,356)" d="m0 0 3 1-1 5-8 5-1-2h-6l3-2 8-4z" fill="#9C9E9F"/>
<path transform="translate(136,245)" d="m0 0 2 3-11 18-6 9-1-2 15-26z" fill="#8A8C8D"/>
<path transform="translate(496,212)" d="m0 0 3 3 3 6v2h2l8 14h-3l-6-10v-2h-2v-3h-2l-3-7z" fill="#A7A9A9"/>
<path transform="translate(482,188)" d="m0 0 3 4 12 22-2 1-14-24z" fill="#D2D4D4"/>
<path transform="translate(356,219)" d="m0 0 4 2 10 9 2 4h2l2 5-4-2-7-8-9-9z" fill="#535557"/>
<path transform="translate(79,454)" d="m0 0 4 4 1 2 1-6h1l2 16-2 1-7-15z" fill="#868889"/>
<path transform="translate(450,292)" d="m0 0h17v1l-21 3v2l-4 2-3-1 9-6z" fill="#494A4D"/>
<path transform="translate(513,249)" d="m0 0h2l4 4 4 1 7 9-1 3-5-5v-2l-4-2-6-5z" fill="#4C4D50"/>
<path transform="translate(209,505)" d="m0 0h16l-2 2-21 2 2-3z" fill="#56575A"/>
<path transform="translate(591,311)" d="m0 0v3l-9 11-4 1 2-5h2v-2h2l2-4z" fill="#BEC0C0"/>
<path transform="translate(312,110)" d="m0 0 4 4 11 20-2 1-13-22z" fill="#EFF0F0"/>
<path transform="translate(89,474)" d="m0 0 3 3 1 2 4 1 2-4 1 3-4 8-4-4-3-6z" fill="#56575A"/>
<path transform="translate(441,469)" d="m0 0 19 2 3 1 12 1v1h-13l-13-1-9-2z" fill="#494A4D"/>
<path transform="translate(5,311)" d="m0 0 2 2 6 16 3 7-2 1-7-15-2-6z" fill="#525456"/>
<path transform="translate(1425,285)" d="m0 0h1l1 14 3 10 2 4h-3l-4-10-1-12z" fill="#6E6F71"/>
<path transform="translate(895,303)" d="m0 0 3 1 8 17 3 5-1 3-12-23z" fill="#5B5C5E"/>
<path transform="translate(151,148)" d="m0 0 1 3-11 21h-3l6-11z" fill="#525356"/>
<path transform="translate(129,144)" d="m0 0 1 2-13 22-2-2 11-18 1-3z" fill="#D1D3D3"/>
<path transform="translate(459,149)" d="m0 0 3 3 4 8 4 4 2 9-4-5-9-16z" fill="#E9EAEA"/>
<path transform="translate(1610,368)" d="m0 0h1l1 23-3-2v-20z" fill="#4F5053"/>
<path transform="translate(731,358)" d="m0 0 9 3 1 2 9 1 4 1-3 1h-9l-10-4z" fill="#ADAFAF"/>
<path transform="translate(248,430)" d="m0 0h9l-4 2-16 2h-5l-1-2z" fill="#A6A7A8"/>
<path transform="translate(99,309)" d="m0 0 1 2-5 9-3-2-2-7h6z" fill="#5B5D5F"/>
<path transform="translate(2022,264)" d="m0 0 6 5 6 13v3h-2l-1 2-3-13-6-8z" fill="#606163"/>
<path transform="translate(403,52)" d="m0 0 3 1 9 17-3 1-8-16z" fill="#5A5C5E"/>
<path transform="translate(132,39)" d="m0 0 1 4-11 19-1-3z" fill="#595A5C"/>
<path transform="translate(225,433)" d="m0 0h7l-2 2-21 7 1-3 14-5z" fill="#CFD1D1"/>
<path transform="translate(886,286)" d="m0 0 3 1 8 16-4-1-7-14z" fill="#636467"/>
<path transform="translate(142,329)" d="m0 0 1 4-1 2h-2l-2 6-4 4v-3l6-11z" fill="#515255"/>
<path transform="translate(385,327)" d="m0 0 2 2-4 9-4 4-1-2 5-12z" fill="#4B4C4F"/>
<path transform="translate(169,276)" d="m0 0 1 3-10 18h-2l2-5z" fill="#D2D3D4"/>
<path transform="translate(124,423)" d="m0 0 1 4-7 14-2-2z" fill="#535457"/>
<path transform="translate(1865,255)" d="m0 0 4 1 4 16h-3l-4-15z" fill="#5E6062"/>
<path transform="translate(174,81)" d="m0 0 2 4-2 15h-2v-14z" fill="#525355"/>
<path transform="translate(124,525)" d="m0 0h1l1 16-2 10h-1v-13z" fill="#BABBBC"/>
<path transform="translate(214,113)" d="m0 0 3 2 6 14-3-1-7-12z" fill="#4E5052"/>
<path transform="translate(836,256)" d="m0 0 8 1-2 2-5 1v18h-1z" fill="#FDFDFD"/>
<path transform="translate(1440,352)" d="m0 0 6 4-3 1-10 2 5-6z" fill="#A1A2A3"/>
<path transform="translate(120,60)" d="m0 0 2 3-8 14h-2l1-4z" fill="#6E6F71"/>
<path transform="translate(126,359)" d="m0 0 2 2-6 9-3 1 2-6 3-5z" fill="#4D4E51"/>
<path transform="translate(867,308)" d="m0 0 3 3 3 7-4-1-2 4z" fill="#606163"/>
<path transform="translate(432,174)" d="m0 0 3 1 6 12v2h-2l-7-13z" fill="#535456"/>
<path transform="translate(72,248)" d="m0 0v3l-7 12h-2l2-6 4-7z" fill="#505154"/>
<path transform="translate(409,81)" d="m0 0 5 1h3v5l-4 1-4-5z" fill="#494A4D"/>
<path transform="translate(167,47)" d="m0 0h2l5 15v2h-2l-5-14z" fill="#505254"/>
<path transform="translate(2e3 350)" d="m0 0 1 4-4 7-4 2-1-2 3-3 3-5h2z" fill="#ABACAD"/>
<path transform="translate(482,521)" d="m0 0h3l-2 4-5 5h-3v-2h2l2-4z" fill="#CCCDCD"/>
<path transform="translate(131,484)" d="m0 0 3 1-4 12-3 1 3-12z" fill="#929495"/>
<path transform="translate(2011,386)" d="m0 0 2 1-3 3-9 1-1-3z" fill="#515254"/>
<path transform="translate(284,389)" d="m0 0h17v3h-8v-2h-9z" fill="#505254"/>
<path transform="translate(179,257)" d="m0 0h2l-2 6-7 12-1-2 4-9h2z" fill="#C7C9C9"/>
<path transform="translate(226,224)" d="m0 0m-1 1 1 3-9 10v-3l6-8z" fill="#4F5053"/>
<path transform="translate(531,194)" d="m0 0 3 3 6 11-1 2-7-10z" fill="#A6A7A8"/>
<path transform="translate(61,379)" d="m0 0 3 1-4 13-2 1 1-9z" fill="#929494"/>
<path transform="translate(451,272)" d="m0 0h2l7 8 4 4v2h-2l-7-8-4-4z" fill="#505154"/>
<path transform="translate(441,255)" d="m0 0 4 5 1 3h-2l2 5-5-5-1-6z" fill="#6B6C6E"/>
<path transform="translate(410,204)" d="m0 0h3l6 12h-3z" fill="#5A5B5E"/>
<path transform="translate(109,84)" d="m0 0 1 2-6 12-3 1 2-6z" fill="#BFC1C1"/>
<path transform="translate(146,382)" d="m0 0 1 3-6 11-2-2 6-11z" fill="#545558"/>
<path transform="translate(1822,371)" d="m0 0h1l-1 9-2 3h-2l2-9z" fill="#525456"/>
<path transform="translate(1798,348)" d="m0 0h1l-1 8-3 7-1-4 3-10z" fill="#C8CACA"/>
<path transform="translate(162,293)" d="m0 0 2 2-7 11-1-3z" fill="#4F5053"/>
<path transform="translate(225,17)" d="m0 0 4 2 6 4v2l-5-1-2-1v-2l-3-1z" fill="#494A4D"/>
<path transform="translate(153,446)" d="m0 0 1 2-7 11h-3z" fill="#808283"/>
<path transform="translate(199,377)" d="m0 0 2 1v5l-3 4-3-1z" fill="#7B7D7E"/>
<path transform="translate(351,372)" d="m0 0m-2 1 2 1-5 5-5 3-2-1 4-4 5-3z" fill="#4B4C4F"/>
<path transform="translate(1516,267)" d="m0 0 4 2 4 4-1 5-3-2-2-6z" fill="#646668"/>
<path transform="translate(1308,257)" d="m0 0h9v2l-8 1-1 4z" fill="#FDFDFD"/>
<path transform="translate(140,125)" d="m0 0 1 2-2 5h-2l-2 6-2 1 1-5z" fill="#B2B3B4"/>
<path transform="translate(432,496)" d="m0 0 2 1-7 7-4 2-3-1 10-7z" fill="#686A6C"/>
<path transform="translate(1807,312)" d="m0 0 2 2-2 9-2 4-1-3z" fill="#D8DADA"/>
<path transform="translate(153,15)" d="m0 0 3 3 2 5-4 1-2-1z" fill="#5E5F61"/>
<path transform="translate(70,293)" d="m0 0h1v12l-2-1-1-9z" fill="#4F5053"/>
</svg>
