<?xml version="1.0" encoding="UTF-8"?>
<svg version="1.1" viewBox="0 0 1600 1600" width="100" height="100" xmlns="http://www.w3.org/2000/svg">
<path transform="translate(244,127)" d="m0 0h208l243 1h374l153-1h138l33 2 21 3 14 4 13 5 16 8 16 11 13 12 12 12 10 14 10 17 10 23 4 17 2 17 1 21v699l-2 1-9-6-10-9-14-11-13-9-10-7-6-7-1-379-1-289-2-14-5-14-8-15-8-10-1-3-4-2-9-8-14-8-20-7-14-2-17-1-126-1h-963l-52 1-22 2-15 4-19 10-11 9-8 9-9 14-7 15-4 13-2 14-1 276v500l3 21 4 13 8 15 7 9 8 9 11 8 14 8 13 5 15 3 10 1 159 1 17 2 8 4 6 8 4 13 4 23 3 28v43l-3 27-7 33-7 21-7 16-7 14-4 9 11-3 13-5 15-7 19-9 24-14 16-11 11-8 14-12 8-8h2l2-4 6-5 7-8 12-14 10-13 10-15 13-22 14-28 8-18 10-20 6-9h2v-2l7-4 11-1 23-1h246l9 1 1 1-1 9-5 12-5 22-3 15-3 3-5 1-234 1-3 7-5 15-8 13-10 21-11 17-9 14-8 12-13 16-12 14-31 31-10 8-7 6-12 9-20 13-18 10-19 10-27 11-20 7-18 5-33 8-31 5-22 2h-36l-7-2-5-4-8-13-3-12 2-11 6-9 3-1v-2l17-13 11-8 10-9h2l2-4 12-12 7-10 8-13 7-16 6-18 4-20 4-29v-33l-2-15-7-1h-128l-21-2-20-4-15-5-20-9-16-11-12-11-13-13-11-15-9-15-8-17-6-21-3-19-1-14-1-33-1-73v-508l1-153 2-27 3-17 5-15 12-25 9-15 13-16 11-11 16-12 13-8 16-8 16-5 26-4 12-1z"/>
<path transform="translate(1265,960)" d="m0 0h30l26 2 28 4 27 7 19 7 21 9 22 12 15 9 15 10 16 13 8 6v2l4 2 20 20 7 8 13 16 10 15 10 17 12 23 12 28 10 32 4 15 2 3 1 2h-2l3 12 2-2v99l-1 9 1 4v9h-2l-2-7-1-4-3 8-8 30-8 21-14 29-9 15-11 17-12 17-9 11-8 10h-2l-2 4-8 7-8 8-9 7-14 11-20 13-21 12-27 13-25 9-25 7-25 6-1 3h-92v-2h-6v2l-4-1-4-4-28-8-29-10-19-8-19-9-24-14-19-14-11-9-11-10-8-7-13-14-11-14-10-13-10-15-10-18-8-16-10-22-10-30-5-22-4-27-1-12v-52l3-25 5-25 12-36 6-15 11-22 11-19 10-15 9-12 11-14 15-16 12-12 11-9 14-11 18-12 17-10 25-13 26-10 21-6 26-5 26-3zm2 65-28 2-25 5-24 7-17 7-14 7-21 13-11 8-11 9-4 3v2l-4 2-20 20-9 11-11 15-10 17-6 10-12 26-8 28-4 21-3 30v28l2 22 4 22 5 19 5 15 11 24 10 17 11 16 9 11 9 10 7 8h2v2l8 7 14 12 27 18 27 14 21 8 32 8 33 4h34l27-3 25-5 27-9 16-7 18-10 21-14 12-9 15-13 14-14 11-14 9-12 13-22 8-17 6-15 7-25 5-25 2-15 1-15v-18l-2-26-4-26-8-27-7-18-12-24-10-16-10-14-9-11-21-21-14-11-8-6-15-10-20-11-28-12-25-7-22-4-11-1-24-1zm330 301 1 2 1-2zm-1 5 1 2zm-1 3 1 2z"/>
<path transform="translate(1270,1091)" d="m0 0h15l13 4 9 5 2 3 2 18v126h106l27 1 8 2 6 4 8 9 2 6 1 15-2 8-5 8-7 7-8 3-39 1-94 1h-3v124l-2 17-5 8-10 5-8 2h-17l-10-4-7-8-4-10-1-23v-112l-77 1h-36l-19-1-12-3-7-7-6-12-1-3v-11l4-11 7-9 7-6 7-1 50-1 84-1-1-12v-98l1-23 2-9 5-6 12-6z"/>
<path transform="translate(1599,1203)" d="m0 0h1v6l-3-2v-3z"/>
<path transform="translate(1598,1221)" d="m0 0 2 1z"/>
<path transform="translate(1599,1210)" d="m0 0"/>
<path transform="translate(1232,1599)" d="m0 0"/>
<path transform="translate(1208,1599)" d="m0 0"/>
<path transform="translate(1599,1219)" d="m0 0"/>
</svg>
