<?xml version="1.0" encoding="UTF-8"?>
<svg version="1.1" viewBox="0 0 1600 1600" width="100" height="100" xmlns="http://www.w3.org/2000/svg">
<path transform="translate(764,398)" d="m0 0h516l46 1 34 3 16 4 19 8 18 12 10 8 11 11 12 16 8 14 6 15 4 14 2 17v802l-2 31-4 18-8 20-6 11-10 14-9 10-12 11-17 11-14 6-21 6-19 3-11 1-30 1-693 1h-57l-29-1-22-3-11-3-17-7-15-9-13-11-16-16-10-14-8-14-6-15-4-14-2-12-2-43-1-45v-659l1-60 2-31 5-19 11-23 10-15 9-11 9-9 15-11 15-9 16-8 15-4 24-2zm-5 134-226 1-1 426v374l53 1h662l84-1 1-1 1-276v-171l-1-210v-119l-1-23-141-1z" fill="#FEFEFE"/>
<path transform="translate(273,133)" d="m0 0h840l31 1 12 3 14 7 12 11 7 8 8 16 3 16v11l-3 12-8 16-7 10-3 4h-2v2l-11 8-10 4-17 3-18 1h-855l1 6-1 856-2 23-5 12-10 14-9 9-10 6-8 3-10 2h-27l-13-4-8-4-10-8-7-7-9-14-4-12-2-15-1-28v-840l2-23 4-14 8-20 8-14 10-13 9-10 8-7 10-8 15-9 13-6 11-4 17-3z" fill="#FEFEFE"/>
</svg>
