<?xml version="1.0" encoding="UTF-8"?>
<svg version="1.1" viewBox="0 0 1024 1024" width="1024" height="1024" xmlns="http://www.w3.org/2000/svg">
<path transform="translate(153,368)" d="m0 0 18 1 15 2 9 3 9 7 2-4 4-4 5-2 10-1 14 2 10 5 10 8 7 9 12 22 13 23 16 29 11 19 6 9v2h-16l-13-4-13-8-13-13-10-16-9-17-8-14-10-17-6-7-6-3h-3l-2 3 1 5 14 25 14 24 11 20 7 11 9 8 8 3 6 1 41 1-2 5-9 11-10 7-6 3-5 1-53 1-8 12h69l2 1-1 6-6 10-9 10-7 5h-3l3 7 2 4-1 6-3 6-8 10-10 7-11 4h-136l-1-1 1-21 3-12 7-13 14-19 9-14-1-4-9-17-15 28-9 17-10 22-2 1-14-28-2-7v-10l4-9 3-5h-9l-11 1-6-7-4-8-2-7v-14l5-12 14-26 13-23 14-25 12-21 7-12h3l7 16 2 6 1 12-4 16-14 26-13 23-14 25-1 2v6l10 2 8-13 17-29 16-27 11-19h2l9 20 1 1h23l2-1-10-18-16-27-12-20zm7 206-7 3-8 9-4 8 10-2 96-1 5-3 2-3-1-6-6-5z" fill="#6E7071"/>
<path transform="translate(206,455)" d="m0 0 12 6 9 8 4 1v2l9 3 7 2 1 3h6l5 7 4 1 8 7 8 3 6 1 41 1-2 5-9 11-10 7-6 3-5 1-53 1-8 12h69l2 1-1 6-6 10-9 10-7 5h-3l3 7 2 4-1 6-3 6-8 10-10 7-11 4h-136l-1-1 1-21 3-12 7-13 14-19 9-14-1-4-9-17-15 28-9 17-10 22-2 1-3-6v-15l3-10 8-17 13-23 14-25 11-19 4-4-2 5v3l-1 4 1 1-2 1-1 4 2 4 1-5 5-10 3-2-2 5-5 11-1 12 2-2 8 7 2 1v2l5 1 7 1h23l6-2h3v-2l8-4h3l2-4 5-5 3-4h2l2-4 2 5-1-5-5-10-5-6-11-7-4-2zm-46 119-7 3-8 9-4 8 10-2 96-1 5-3 2-3-1-6-6-5z" fill="#525355"/>
<path transform="translate(285,543)" d="m0 0h18l1 2-6 11-11 12-6 4h-3l3 7 2 4-1 6-3 6-8 10-10 7-11 4h-136l-1-1 1-21 3-12 7-13 9-12 5-4 3-3 11-4h18l23 4 6 1 3 2 8 2v1l12 1h38l8-2 8-7zm-125 31-7 3-8 9-4 8 10-2 96-1 5-3 2-3-1-6-6-5z" fill="#525355"/>
<path transform="translate(126,369)" d="m0 0 2 1 7 16 2 6 1 12-4 16-14 26-13 23-14 25-1 2v6l11 2-2 6-7 12-1 1-21 2-6-7-4-8-2-7v-14l5-12 14-26 13-23 14-25 12-21 7-12z" fill="#535456"/>
<path transform="translate(183,454)" d="m0 0h13l12 3 10 6 7 6 6 10 2 5v9h-1l-2-9-4 2-2 4-4 2-2 4-2 3-9 4h-2v2l-11 3h-23l-10-3v-2l-5-2-5-5-3 2 1-13 7-14 4-5 13-9z" fill="#ADAFB0"/>
<path transform="translate(285,543)" d="m0 0h18l1 2-6 11-11 12-6 4-3 1h-94l4-5 4-1 2-7-2-1h-26l-13 4-11 6-10 8-8 10-6 10-2 7h-1v-9l2-13 7-13 9-12 5-4 3-3 11-4h18l23 4 6 1 3 2 8 2v1l12 1h38l8-2 8-7z" fill="#707273"/>
<path transform="translate(229,372)" d="m0 0h10l10 5 10 8 7 9 12 22 13 23 16 29 11 19 6 9v2h-16v-2l-8-6-3-5-10-13-11-18-16-28-13-24-12-22z" fill="#6F7172"/>
<path transform="translate(222,370)" d="m0 0 12 1-4 2 7 8 16 31 13 23 16 28 12 17 6 7 2 4 7 5v1l-9-1-14-7-10-9-7-7-10-16-9-17-8-14-10-17-6-7-6-3h-3l-4 5-4-10-6-13 4-6 8-4z" fill="#525355"/>
<path transform="translate(229,482)" d="m0 0 2 2 2 5h1v13l-4 12-5 9-9 9-12 6-4 1h-15l-13-4-10-7-6-7-6-10-2-8v-5l3-3 8 7 2 1v2l5 1 7 1h23l6-2h3v-2l8-4h3l2-4 5-5 3-4h2z" fill="#888A8B"/>
<path transform="translate(432,479)" d="m0 0h17l12 22 3 7v-29h16v61h-16l-8-16-7-15-1 31h-16z" fill="#ABADAE"/>
<path transform="translate(923,479)" d="m0 0h33l8 4 4 5 1 3v7l-3 7-4 2v2l4 2 4 5 1 3v7l-3 7-5 5-6 2h-34zm17 12-1 1v11h9l5-3 1-5-3-3zm-1 24v12h11l4-2 1-6-4-4z" fill="#A7A9AA"/>
<path transform="translate(368,479)" d="m0 0h17v16l1 28 5 3 6-1 2-2 1-44h17v44l-3 9-5 5-5 3-6 2h-11l-10-4-7-8-2-6z" fill="#898B8C"/>
<path transform="translate(107,404)" d="m0 0 1 2h2l1 6 3 10 4 3 4-4-2 5-21 36-14 25-8 17-2 6h-1v-6h-3l-5-5-4-3h-1l-1-7 5-12 14-26 26-46z" fill="#E0E2E2"/>
<path transform="translate(874,479)" d="m0 0h20l3 7 14 49 1 5h-17l-2-9v-4h-18l-1 9-2 4h-15l2-10 14-49zm10 15-2 6-3 14h10l-4-20z" fill="#A7A9AA"/>
<path transform="translate(643,479)" d="m0 0h41v13l-1 1h-20l-4-1v11h21v13h-20l-1 10h25v14h-41z" fill="#AFB1B2"/>
<path transform="translate(712,478)" d="m0 0h13l10 4 6 5-3 5-5 6-4-2-5-3-7-1-4 2v4l16 6 7 4 5 7 1 11-3 7-5 5-6 3-4 1h-11l-11-4-8-7 2-4 7-7 7 5 6 2h6l4-4-2-4-16-6-8-5-4-8v-7l4-8 6-5z" fill="#D1D3D3"/>
<path transform="translate(124,470)" d="m0 0 3 1 3 6 7 4 5-5-2 6-14 25-12 21-10 19-3 7-2 8-1 13-3-4-9-19-1-4v-10l4-9 12-21 6-12 13-22z" fill="#E0E2E2"/>
<path transform="translate(284,499)" d="m0 0 42 1-2 5-9 11-10 7-6 3-5 1-50-1v-2l2-1v-2h2v-20l33-1z" fill="#888A8B"/>
<path transform="translate(152,369)" d="m0 0 10 2 11 8 8 8 9 13 15 25 9 16 3 6-1 2-2-1-23 1-4-2-12-1-7-1-4-2v-7l7 1h18l2-1-10-18-16-27-12-20z" fill="#535456"/>
<path transform="translate(183,454)" d="m0 0h13l12 3 10 6 1 2-4-1-1 6-7 9-4 2v2l-8 4-12 2-13-1-7-5v-2l-5-2v-2l-2-1 1-2-2-1 5-7 13-9z" fill="#E1E3E3"/>
<path transform="translate(583,479)" d="m0 0h47v14h-16v47h-16v-47h-15z" fill="#D9DBDB"/>
<path transform="translate(749,479)" d="m0 0h46l1 1v13h-16v47h-16v-47h-15z" fill="#7C7D7F"/>
<path transform="translate(528,479)" d="m0 0h46v14h-15v47h-16l-1-46-14-1z" fill="#A8AAAB"/>
<path transform="translate(807,479)" d="m0 0h17v47h22v14h-39z" fill="#848687"/>
<path transform="translate(277,591)" d="m0 0 4 1-7 9-5 5-8 6-11 4h-22l-30-1v-1l12-1 1-4 2-9 2-5-7-2v-1h19l18 1h23z" fill="#ACAEAF"/>
<path transform="translate(160,592)" d="m0 0h48l8 2-2 6-2 10-2 4-12 1h-48v-1h10v-6l1-4z" fill="#707273"/>
<path transform="translate(230,504)" d="m0 0 1 4-1 6-5 9-9 9-12 6-4 1h-15l-13-4-10-7-6-7-6-10 1-3v2l4 1 11 7 7 2 15 2 11-1 12-4 7-5 7-4 5-2z" fill="#707273"/>
<path transform="translate(153,368)" d="m0 0 18 1 15 2 9 3 9 8 8 17 5 10-1 4-1-4-4 1-2 5-6 3 1 5-3-3-10-17-8-12-11-12-10-7-9-3z" fill="#F9FAFB"/>
<path transform="translate(229,372)" d="m0 0h10l10 5 10 8 7 9 11 20-1 5-4 5-4 1v2l-4 1 8 15-1 2-12-21-24-44z" fill="#DFE1E1"/>
<path transform="translate(285,543)" d="m0 0h18l1 2-6 11-11 12-6 4-3 1h-44v-1l8-1 5-5v-5l-2-1-15-1v-1l30-1 8-2 8-7z" fill="#E1E3E3"/>
<path transform="translate(923,479)" d="m0 0h33v1h-32l1 41 1-3 6-1 4 1 1 2 1-7h15l4-1 5 2 6-1 3 6v7l-3 7-5 5-6 2h-34zm16 36v12h11l4-2 1-6-4-4z" fill="#87898A"/>
<path transform="translate(498,479)" d="m0 0h16l1 42v18l-1 1h-16z" fill="#ADAFB0"/>
<path transform="translate(126,369)" d="m0 0 2 1 5 15 2 5v10l-12 22h-2l-4 5-4-5-4-12 1-4-4-1 2-5 15-27z" fill="#6F7172"/>
<path transform="translate(643,479)" d="m0 0h41v13l-1 1h-20l-4-1v11h-1v-12h24v-11h-38l1 40 12-2 1-4h21l1-3v5h-20l-1 10h25v14h-41z" fill="#868889"/>
<path transform="translate(903,511)" d="m0 0 2 2 7 27h-17l-2-9v-4h-18l-1 9-2 4h-15l2-10 4-6 2-6 5-1h18l15 1v-3z" fill="#828485"/>
<path transform="translate(700,506)" d="m0 0 11 6 12 3h8l5 1v2l3 1v-6l2 2 1 11-3 7-5 5-6 3-4 1h-11l-11-4-8-7 2-4 7-7 7 5 6 2h6l4-4-2-4-16-6-8-5z" fill="#7E7F81"/>
<path transform="translate(284,499)" d="m0 0 42 1-2 5-9 11-10 7-3 2-13 1-1-1v-5h2l-2-7-3-5-3-3-5-1v-1l-18-1v-1l22-1z" fill="#ACAEAF"/>
<path transform="translate(124,470)" d="m0 0 3 1 3 6 7 4 5-5-2 6-11 19-3 3-8 13-3-3v-2h-2l-5-8h-2l3-11 13-22z" fill="#ACAEAF"/>
<path transform="translate(277,416)" d="m0 0 3 3 9 17 12 21-1 4-5-8-7 4-6 2 3 6-1 2-8-13-4-7-4-10-4-7v-2l4-1v-2l4-1 2-4z" fill="#ADAFB0"/>
<path transform="translate(400,479)" d="m0 0h17l-1 33-1 12-2-2-10 1-3 5-10 1-4-2v-1h9l4-3z" fill="#ACAEAF"/>
<path transform="translate(213,409)" d="m0 0h2l5 5 14 25 2 4h-3l-5 1-1 5-5 3 1 4h-2l-7-12-7-14-3-5-2-8 6-2 3-5z" fill="#888A8B"/>
<path transform="translate(222,370)" d="m0 0 12 1-4 2 7 8 6 12v4l-15-6h-9l-2 4-2 3h-2l-2-2-3-4-5-11 4-6 8-4z" fill="#868889"/>
<path transform="translate(924,480)" d="m0 0h35l6 4 2 5v9l-1-3h-9l-2 4-1-6-5-2h-10l-1 12-1-4h-9-2l-1 9h-1z" fill="#E1E3E3"/>
<path transform="translate(750,480)" d="m0 0h44v11l-15 1-1 12h-1l-1-5h-8v-2h-2v10h-1v-16l-15 1z" fill="#E3E5E5"/>
<path transform="translate(808,480)" d="m0 0h14v45h-1v-5l-7 2-5-2v15h-1z" fill="#ADAFB0"/>
<path transform="translate(277,591)" d="m0 0 4 1-7 9-5 5-8 6-4 2-8 1h-12v-1h5l-1-5 3-14h-6v-1l30-1z" fill="#DFE1E1"/>
<path transform="translate(529,480)" d="m0 0h44v11h-15l-1 10-1-4-3 1-7-1-2 4v-10h-15z" fill="#E3E5E5"/>
<path transform="translate(183,592)" d="m0 0h25l8 2-2 6-2 10-2 4-12 1h-22v-1l12-1 1-3v-15l-6-2z" fill="#898B8C"/>
<path transform="translate(644,480)" d="m0 0h38v11h-24v11l-2-4h-10l-1 14h-1z" fill="#E3E5E5"/>
<path transform="translate(136,451)" d="m0 0 10 5h7l3-3-1 5-7 10-5 8-6 6-8-5-2-6h-4l2-5 7-12z" fill="#898B8C"/>
<path transform="translate(107,404)" d="m0 0 1 2h2l1 6 3 10 4 3 4-4-2 5-7 12-4 4-4 5-3-12-2-5-3-1-3-3 2-5 9-16z" fill="#AEB0B0"/>
<path transform="translate(874,479)" d="m0 0h20l3 7 3 10v8l-2-2-2-4h-9l-2-5-2 1-2 7-1-4-8 1-3 7h-1l1-10z" fill="#D7D9D9"/>
<path transform="translate(141,550)" d="m0 0 3 1-3 3 1 1 1 10 11-5 3 1-15 8-10 8-8 10-6 10-2 7h-1v-9l2-13 7-13 9-12 5-4z" fill="#F2F3F3"/>
<path transform="translate(229,372)" d="m0 0h10l10 5 10 8 5 6-1 4-1-2h-4v2l-9 2-1 2 11 21-1 2-10-18-12-23-7-8z" fill="#F8F9F9"/>
<path transform="translate(696,493)" d="m0 0h1l1 5 4-1h7l1 2 13 5 4 1 2-1 7 4 3 4 1 5v7h-1l-1-5-2-1v-2h-14l-11-3-12-7-3-6z" fill="#ABADAE"/>
<path transform="translate(433,480)" d="m0 0h17l11 21v5l-3-3v-2l-18-1h-5l-1 12h-1z" fill="#DCDEDE"/>
<path transform="translate(479,480)" d="m0 0h1v60h-16l-8-16-2-6h2l2 3h9l10-2 1-10z" fill="#7B7D7E"/>
<path transform="translate(629,480)" d="m0 0h1v13h-16v47h-16v-47h-14v-1h15l1 27h11l1-27h17z" fill="#797A7C"/>
<path transform="translate(68,472)" d="m0 0 5 1 3 4 4 8-1 5 2 1-3 7-3 12h-1v-6h-3l-5-5-4-3h-1l-1-7 5-12z" fill="#ACAEAF"/>
<path transform="translate(129,376)" d="m0 0 3 3 5 13 1 12-4 16-14 26-2 1-1-3-2-2-3-4 12-20 10-18v-10l-5-12z" fill="#535456"/>
<path transform="translate(204,387)" d="m0 0 3 4 3 6v2l3 1 3 7 1 6-2-4-4 1-2 5-6 3 1 5-3-3-5-8-2-7-2-3 1-4 8-5z" fill="#E0E2E2"/>
<path transform="translate(573,479)" d="m0 0h1v14h-15v47h-16v-23l3 1v2l8-1h2l1-4 1-24h15z" fill="#7C7D7F"/>
<path transform="translate(111,439)" d="m0 0 4 1 3 3 1 2-4 10-12 21-3 5-3 1-2-7-1-3 6-11 1-4z" fill="#6B6D6E"/>
<path transform="translate(432,479)" d="m0 0h17v1h-16l1 40h11l1-14 2-2 1 3-1 33h-16z" fill="#818384"/>
<path transform="translate(255,581)" d="m0 0 6 1 21-1 1 6-2 4-13 3h-23l-18-1v-1l16-1 8-3z" fill="#707273"/>
<path transform="translate(248,501)" d="m0 0h11l6 16 2 7-2 2h-21v-2l2-1v-2h2z" fill="#707273"/>
<path transform="translate(295,452)" d="m0 0 4 5 2 2 4 5 3 6-1 4-16-1 1 4-5-5-4-9-2-5 7-2z" fill="#898B8C"/>
<path transform="translate(513,479)" d="m0 0h1l1 42v18l-1 1h-16v-36h1l1 19 2-3 9 1 1 2z" fill="#818384"/>
<path transform="translate(230,558)" d="m0 0h18l17 1 1 3h2l4 4v6l-15 1h-23v-1l8-1 5-5v-5l-2-1-15-1z" fill="#ADAFB0"/>
<path transform="translate(213,409)" d="m0 0h2l5 5 8 14-1 4-5-8-2 3h-2l-1 6h-2l-1 8-3-3-7-13-2-8 6-2 3-5z" fill="#ADAFB0"/>
<path transform="translate(114,393)" d="m0 0 2 1v3h2l4 10 2 4 3-1 2-2-1 5-5 9h-2l-4 5-4-5-4-12 1-4-4-1 2-5 3-5z" fill="#898B8C"/>
<path transform="translate(217,558)" d="m0 0h13l15 1 3 2v6l-6 5-8 1h-20l-2-2 6-2 5-1v-2h2v-7h-8z" fill="#898B8C"/>
<path transform="translate(183,454)" d="m0 0h13l9 2v1h-12v8l-3 5-7 2-7-2-6-8-6 4-2-1 9-7z" fill="#FCFDFD"/>
<path transform="translate(401,480)" d="m0 0h15l-1 31h-1l-1-10-9 1-2 9h-1z" fill="#E4E6E6"/>
<path transform="translate(778,492)" d="m0 0h1v16l-1 18h-1v-6l-9 1-1-1-1 18h-1v-31l1-10h2v2h8z" fill="#ADAFB0"/>
<path transform="translate(369,480)" d="m0 0h14v25l-4-4-9-2v10h-1z" fill="#E4E6E6"/>
<path transform="translate(808,480)" d="m0 0h14v27h-1v-7l-10-1-1-1-1 15h-1z" fill="#E4E5E5"/>
<path transform="translate(152,546)" d="m0 0h9l-1 3 1 8 5 1v1l-9 2-5 1-8 4-2-1-1-10v-3l4-4z" fill="#AEB0B1"/>
<path transform="translate(600,496)" d="m0 0 11 1 1 10v18h-1l-1-5h-9l-1 16h-1v-25z" fill="#ADAFB0"/>
<path transform="translate(370,499)" d="m0 0 10 1 3 5v17l-7-1-5-1v5l-2-4v-12z" fill="#ADAFB0"/>
<path transform="translate(499,480)" d="m0 0h14v32h-1l-1-13-9-2-2 6h-1z" fill="#E3E5E5"/>
<path transform="translate(222,370)" d="m0 0 12 1-4 2 3 4-8 3-1 2h-7l-1 2-8 1-4-1-1-3 4-6 8-4z" fill="#AFB1B2"/>
<path transform="translate(248,573)" d="m0 0h30l3 6-1 3-20 1-4-1h-3l-3-5z" fill="#515254"/>
<path transform="translate(465,480)" d="m0 0h14l-1 27h-1l-1-8-8 1-2-1-1 2z" fill="#E3E5E5"/>
<path transform="translate(60,491)" d="m0 0 3 4 8 7v2h3l1 8-2 9-4 1-6-10-3-9z" fill="#848687"/>
<path transform="translate(643,479)" d="m0 0h41v13l-1 1h-20l-4-1v11h-1v-12h24v-11h-38v59l38-1 1-11h1v13h-41z" fill="#747677"/>
<path transform="translate(299,543)" d="m0 0 5 1-6 12-11 12-4 3-2-1-2-3 5-4 3-7 3-3 4-8z" fill="#A9ABAC"/>
<path transform="translate(85,538)" d="m0 0 2 2 2 3 5 7 2 6h2l1 6-1 13-3-4-9-19-1-4z" fill="#A5A7A8"/>
<path transform="translate(141,550)" d="m0 0 3 1-3 3 1 1 1 10 11-5 3 1-15 8-9 4-1-10-4 2 2-4 5-5 4-5z" fill="#DEE0E0"/>
<path transform="translate(161,546)" d="m0 0h9l2 1 2 4 4 4v1l14 1v1h-32l-1-10h2z" fill="#8A8C8D"/>
<path transform="translate(749,479)" d="m0 0h46l1 1v13h-16l-1-2h15v-11h-44l1 11h14v43h-1v-41h-15z" fill="#8B8D8E"/>
<path transform="translate(923,531)" d="m0 0h1v8l27-1-20-1-1-2 6-1 10 1 12-2h6 3l-1 3-5 3-4 1h-34z" fill="#626365"/>
<path transform="translate(416,480)" d="m0 0h1v43l-3 9-5 5-5 3-6 2h-11l-10-4-5-5 1-2 7 6 6 2h13l7-3 6-5 2-4 1-15z" fill="#5A5B5D"/>
<path transform="translate(154,416)" d="m0 0h2l7 15-1 3-2-2-2 1-5-2-2-6 6-2-3-5z" fill="#525355"/>
<path transform="translate(62,506)" d="m0 0 1 2 5 2v3l3 3 2 5-4 1-6-10z" fill="#6C6D6F"/>
<path transform="translate(894,532)" d="m0 0 2 2h10l2 1v2h-12v2h14l1-3 1 4h-17z" fill="#636466"/>
<path transform="translate(109,533)" d="m0 0 1 2-6 12h-2l-2-4 1-5 4-2h3z" fill="#FDFEFE"/>
<path transform="translate(299,500)" d="m0 0h27l-1 3-20-1-6-1z" fill="#DEE0E1"/>
<path transform="translate(703,520)" d="m0 0 7 5 3 2-3 1-7-3-4 3h-2l-1 2 1-4z" fill="#A3A5A6"/>
<path transform="translate(712,478)" d="m0 0h13l1 3-18 1z" fill="#EAEBEB"/>
<path transform="translate(415,512)" d="m0 0h1l1 11-3 9-5 5-3 2v-3l6-5 2-4z" fill="#6C6E6F"/>
<path transform="translate(153,418)" d="m0 0 3 1 2 5-6 1-4 4 1-4z" fill="#6C6E6F"/>
<path transform="translate(934,534)" d="m0 0 13 1 1 2h-17l-1-2z" fill="#707273"/>
<path transform="translate(952,525)" d="m0 0 3 1-4 3h-12l1-2 10-1z" fill="#ABADAE"/>
<path transform="translate(908,536)" d="m0 0h2v3h-14v-2z" fill="#808283"/>
<path transform="translate(725,525)" d="m0 0 2 2-4 3h-7l-3-2 3-1h6z" fill="#ADAFB0"/>
<path transform="translate(447,504)" d="m0 0 2 1-2 19h-1v-18z" fill="#7D7F80"/>
<path transform="translate(120,432)" d="m0 0h5l-2 6-3 3z" fill="#707273"/>
</svg>
