<?xml version="1.0" encoding="UTF-8"?>
<svg version="1.1" viewBox="0 0 1600 1600" width="100" height="100" xmlns="http://www.w3.org/2000/svg">
<path transform="translate(1425,485)" d="m0 0h14l9 4 8 7 8 13 10 23 11 30 11 34 7 27 11 49 5 33 4 38 2 34v51l-2 31-7 59-6 32-12 48-8 25-7 21-16 41-13 27-11 23-11 20-14 24-9 13-7 11-18 26-10 12-8 10-13 16-10 11-9 11-14 15-22 22-11 9-14 13-14 11-12 10-13 10-16 12-27 18-16 10-24 14-23 12-16 8-28 13-39 15-40 13-30 8-47 10-26 4-36 4-25 2-22 1h-58l-27-2-35-4-38-6-36-8-31-8-36-12-25-9-29-12-23-11-16-8-23-12-17-10-14-8-19-12-16-12-14-10-10-7v41l-2 33-3 17-5 10-7 7-5 3-8 2h-11l-11-2-9-5-10-9-2-2-3-14-1-12v-158l2-10 5-10 8-9 8-4 5-1 16-1 45-1h54l55 2 18 2 10 5 7 8 3 12v24l-5 10-7 6-13 5-15 2-37 2h-12l1 3 14 11 20 12 29 17 19 10 23 11 25 11 31 12 38 12 31 8 32 6 42 6 34 3 19 1h30l47-3 30-3 26-4 30-6 39-10 43-14 34-14 19-9 36-18 27-16 24-15 11-8 19-14 13-10 14-12 11-9 12-11 8-7 30-30 7-8 13-16 9-11 15-20 10-14 7-10 10-16 10-17 12-22 12-24 17-40 10-29 7-21 9-35 5-22 6-34 4-36 2-29v-59l-3-41-5-35-8-40-8-31-11-36-10-28-11-33-1-4v-12l5-10 5-5 9-6 8-4z" fill="#FEFEFE"/>
<path transform="translate(766,75)" d="m0 0h68l49 4 45 6 40 8 30 8 30 9 36 13 24 10 30 14 27 14 25 14 23 14 21 14 14 11 20 14v-82l2-10 5-8 7-6 10-6 7-2h13l11 4 10 7 7 11 2 5 1 6v166l-2 13-5 10-12 12-4 1-19 1h-162l-12-2-6-4-9-10-5-9-1-4v-16l4-10 4-6 9-8 7-4 10-2 12-1 47 1-5-5-13-10-23-14-15-9-24-13-17-9-33-15-26-10-41-14-36-9-32-7-36-5-35-3-31-1h-31l-39 2-39 4-35 6-33 8-25 7-33 11-20 8-28 12-17 8-22 12-15 8-16 10-19 12-16 11-15 11-14 11-18 14-17 12-14 7-6 2-7-1-15-9-8-10-7-14v-12l3-9 8-11 9-10 28-22 18-14 15-11 18-12 22-14 26-15 12-7 16-8 23-11 29-12 24-9 33-11 30-8 39-9 22-4 48-6z" fill="#fff"/>
<path transform="translate(151,495)" d="m0 0h18l13 4 10 7 9 10 3 7v9l-4 15-15 44-9 30-10 42-6 29-8 54-5 17-6 10-5 5-5 3-4 1h-14l-10-2-12-5-8-8-4-7-1-4v-27l3-28 7-41 10-43 7-26 10-32 12-32 8-16 9-12z" fill="#fff"/>
<path transform="translate(134,972)" d="m0 0h15l13 5 8 6 5 8 2 7v18l-4 10-7 8-8 5-10 3h-7l-14-4-9-7-7-10-3-8-1-12 4-11 7-9 7-6z" fill="#fff"/>
</svg>
