<?xml version="1.0" encoding="UTF-8"?>
<svg version="1.1" viewBox="0 0 1600 1600" width="100" height="100" xmlns="http://www.w3.org/2000/svg">
<path transform="translate(1365,63)" d="m0 0h16l12 2 15 6 13 10 10 13 6 14 2 9 1 19v339l-1 2-3 1-42 1h-307l-19-2-13-5-8-6-11-11-8-14-5-13-1-7 1-16 4-13 5-10 9-12 9-8 12-7 7-2 30-2 97-2h9l-7-8-19-14-15-12-18-13-12-8-14-9-20-12-16-9-29-15-32-14-30-11-33-10-28-7-25-5-42-6-35-3-19-1h-28l-46 3-31 4-38 7-32 8-36 11-26 10-26 11-27 13-22 12-15 9-25 16-19 14-17 13-22 18-13 12-9 8-16 16-7 8-15 16-11 14-9 10-10 14-7 10-13 19-13 21-14 25-15 30-11 25-10 27-11 34-9 33-5 28-6 42-4 45-2 37-2 16-5 15-7 9-14 11-11 7-7 4-8 2-12-1-20-5-12-4-7-6-7-10-10-22-4-11-2-10-1-11v-19l2-39 5-40 4-24 10-48 6-24 14-45 15-40 17-38 8-16 11-21 10-17 7-12 9-14 20-30 13-17 8-10 9-12 12-14 9-10 9-11 7-7 3-4h2l2-4h2l2-4 10-10 8-7 7-7 11-9 11-10 14-11 16-13 19-14 36-24 16-10 25-14 33-17 31-14 33-13 46-15 35-9 40-8 32-5 32-3 40-2h55l47 3 34 4 35 6 36 8 33 9 36 12 29 11 23 10 36 17 23 13 29 17 27 18 18 13 16 12 14 11 13 11 26 24 4 3 3 1v-135l1-16 3-12 4-8 11-13 5-5 11-8 10-5z" fill="#FEFEFE"/>
<path transform="translate(409,1296)" d="m0 0h19l22 5 16 6 26 14 23 13 16 8 15 8 16 8 13 9 10 9 6 10 5 12 3 12 1 8v10l-4 11-10 14-11 13-9 8-10 2-27 2h-8l-17-5-26-11-24-12-23-13-20-12-14-10-15-14-10-13-5-13-1-5v-19l3-16 4-9 7-9 11-10 16-10z" fill="#fff"/>
<path transform="translate(178,1006)" d="m0 0h22l9 4 11 8 12 12 8 10 10 16 14 26 13 24 10 16 9 15 8 17 4 13v16l-6 15-10 18-9 11-5 3-15 4-13 5-5 1h-10l-16-8-17-12-12-11-10-13-12-19-14-24-17-33-10-22-6-21-1-4v-14l6-15 6-9 10-13 7-7 12-6z" fill="#fff"/>
<path transform="translate(1219,1253)" d="m0 0 12 2 21 8 12 6 9 9 6 11 8 19 2 6v7l-5 14-10 19-8 11-6 7-14 11-8 7-11 8-21 14-15 9-21 10-13 4-5 1h-8l-17-7-14-7-10-8-7-9-6-14-4-15v-12l4-11 7-12 8-11 7-8 10-10 14-10 18-13 19-13 10-7 14-8 17-7z" fill="#fff"/>
<path transform="translate(893,1398)" d="m0 0h22l12 3 12 6 10 9 8 8 9 14 4 10v13l-2 16-5 13-7 9-4 5-13 10-16 7-19 5-26 4-37 3h-31l-16-3-12-6-10-9-9-13-9-17-2-6v-13l4-16 8-16 8-10 14-8 14-6 16-4 23-3 40-4z" fill="#fff"/>
<path transform="translate(1459,737)" d="m0 0h16l16 4 12 5 9 6 7 8 8 15 6 18 2 12 1 25-1 21-3 18-6 15-8 16-7 8-24 11-10 5-4 1h-10l-19-7-13-7-8-7-8-13-6-15-4-17-1-7v-28l3-28 5-19 6-11 9-11 13-9 16-8z" fill="#FEFEFE"/>
<path transform="translate(1409,1017)" d="m0 0h13l12 4 10 7 11 9 8 9 5 10 2 10 1 19-2 16-4 13-6 13-8 16-9 15-9 12-11 12-9 6-12 4-19 3h-14l-12-4-11-8-8-8-7-8-4-5-4-10-1-4v-21l4-20 5-14 8-17 12-22 13-18 9-8 14-7 15-3z" fill="#fff"/>
</svg>
